<svg xmlns="http://www.w3.org/2000/svg" width="37.473" height="34.038" viewBox="0 0 37.473 34.038">
    <g transform="translate(-2 -3.001)">
        <g transform="translate(2 3.001)">
            <path d="M5.1,34.038c-.024,0-.047,0-.073,0A5.3,5.3,0,0,1,.39,26.748L14.107,2.716a5.3,5.3,0,0,1,9.267.017L37,26.581a5.381,5.381,0,0,1,.465,1.887,5.3,5.3,0,0,1-5.023,5.569l-27.206,0Z" fill="#fd6666" opacity="0.4"/>
            <path d="M10.764,17.844a1.644,1.644,0,1,1-1.639,1.649A1.637,1.637,0,0,1,10.764,17.844Zm0-11.7A1.642,1.642,0,0,1,12.4,7.784h0v5.3a1.639,1.639,0,0,1-3.279,0h0v-5.3A1.642,1.642,0,0,1,10.764,6.145Z" transform="translate(7.972 5.369)" fill="#fd6666"/>
        </g>
    </g>
</svg>