<svg xmlns="http://www.w3.org/2000/svg">
    <symbol class="bi bi-vkuster-apple" id="vkuster-apple" fill="currentColor" viewBox="0 0 29.135 34.671">
        <path d="M24.594,20.2a7.226,7.226,0,0,1,3.87-6.564,8.317,8.317,0,0,0-6.556-3.452c-2.748-.217-5.751,1.6-6.85,1.6-1.161,0-3.824-1.525-5.914-1.525C4.824,10.328.234,13.7.234,20.568a19.292,19.292,0,0,0,1.115,6.285c.991,2.841,4.567,9.807,8.3,9.691,1.951-.046,3.328-1.386,5.867-1.386,2.461,0,3.739,1.386,5.914,1.386,3.762-.054,7-6.386,7.942-9.234A7.673,7.673,0,0,1,24.594,20.2ZM20.213,7.487A7.29,7.29,0,0,0,22.07,1.875a8.208,8.208,0,0,0-5.256,2.7,7.4,7.4,0,0,0-1.982,5.565A6.5,6.5,0,0,0,20.213,7.487Z" transform="translate(-0.234 -1.875)" fill="#202020"/>
    </symbol>
</svg>