<svg xmlns="http://www.w3.org/2000/svg" width="87.822" height="36.045" viewBox="0 0 87.822 36.045">
  <path d="M16.044,13.406a5.387,5.387,0,0,1-4.322,2.044,6.083,6.083,0,0,1,1.55-4.473,6.45,6.45,0,0,1,4.295-2.209,6.528,6.528,0,0,1-1.523,4.638m1.5,2.36c-2.387-.137-4.432,1.358-5.557,1.358-1.153,0-2.881-1.29-4.775-1.249a7.053,7.053,0,0,0-5.982,3.636C-1.355,23.944.552,30.489,3.05,34.1c1.221,1.784,2.676,3.746,4.6,3.677,1.825-.069,2.538-1.18,4.734-1.18s2.854,1.18,4.775,1.153c1.99-.041,3.238-1.784,4.459-3.567a15.511,15.511,0,0,0,1.99-4.1,6.482,6.482,0,0,1-3.883-5.886,6.6,6.6,0,0,1,3.142-5.53,6.782,6.782,0,0,0-5.324-2.9M31.315,10.8V37.541h4.158V28.4h5.749c5.255,0,8.932-3.609,8.932-8.823a8.388,8.388,0,0,0-8.8-8.782H31.315Zm4.158,3.5h4.789c3.609,0,5.667,1.921,5.667,5.3s-2.058,5.324-5.681,5.324H35.473ZM57.728,37.747a6.851,6.851,0,0,0,6.12-3.417h.082v3.211h3.842V24.232c0-3.856-3.087-6.353-7.835-6.353-4.4,0-7.67,2.525-7.794,5.982H55.89c.316-1.647,1.839-2.731,3.924-2.731,2.538,0,3.965,1.18,3.965,3.362v1.482l-5.187.316c-4.816.288-7.423,2.264-7.423,5.694C51.183,35.442,53.873,37.747,57.728,37.747Zm1.125-3.17c-2.209,0-3.622-1.07-3.622-2.689,0-1.688,1.358-2.662,3.952-2.813l4.61-.288V30.3C63.793,32.794,61.666,34.577,58.853,34.577ZM72.918,44.813c4.048,0,5.955-1.55,7.615-6.229l7.286-20.444H83.593L78.708,33.933h-.082L73.741,18.139H69.4L76.43,37.61l-.384,1.18c-.631,2-1.66,2.785-3.5,2.785-.329,0-.96-.041-1.221-.069v3.211A14.381,14.381,0,0,0,72.918,44.813Z" transform="translate(0.004 -8.768)"/>
</svg>
