<svg xmlns="http://www.w3.org/2000/svg" width="56" height="55" viewBox="0 0 56 55">
  <g transform="translate(-0.684)">
    <path d="M91.669,270.667A6.457,6.457,0,0,0,92.847,267c0-3.261-2.6-6.17-7.325-8.193a34.25,34.25,0,0,0-7.994-2.211l3.564,6.722-2.836,1.864-4.8-9.052a51.588,51.588,0,0,0-6.1-.072l3.854,7.259-2.835,1.866L63.7,256.365a41.78,41.78,0,0,0-5.067.93l2.758,6.134-2.945,1.642-3.052-6.787q-.681.249-1.323.523c-4.724,2.023-7.325,4.932-7.325,8.193a6.457,6.457,0,0,0,1.179,3.667Z" transform="translate(-41.111 -228.5)" fill="#fff"/>
    <path d="M138.86,82.933h3.3c0-.426.1-.575.616-1.148a5.213,5.213,0,0,0,0-7.482c-.515-.573-.616-.723-.616-1.148s.1-.575.616-1.148a5.156,5.156,0,0,0,1.583-3.74h-3.3c0,.426-.1.575-.616,1.148a5.212,5.212,0,0,0,0,7.481c.515.573.616.722.616,1.148s-.1.575-.616,1.148A5.157,5.157,0,0,0,138.86,82.933Z" transform="translate(-123.355 -60.933)" fill="#fff"/>
    <path d="M328.213,82.933h3.3c0-.426.1-.575.616-1.148a5.212,5.212,0,0,0,0-7.482c-.515-.573-.616-.723-.616-1.148s.1-.575.616-1.148a5.156,5.156,0,0,0,1.583-3.74h-3.3c0,.426-.1.575-.616,1.148a5.212,5.212,0,0,0,0,7.481c.515.573.616.722.616,1.148s-.1.575-.616,1.148A5.157,5.157,0,0,0,328.213,82.933Z" transform="translate(-292.397 -60.933)" fill="#fff"/>
    <path d="M236.1,14.667h3.3c0-.426.1-.575.616-1.148a5.212,5.212,0,0,0,0-7.482c-.515-.573-.616-.722-.616-1.148s.1-.575.616-1.148A5.156,5.156,0,0,0,241.593,0h-3.3c0,.426-.1.575-.616,1.148a5.212,5.212,0,0,0,0,7.481c.516.573.616.722.616,1.148s-.1.575-.616,1.148A5.158,5.158,0,0,0,236.1,14.667Z" transform="translate(-210.161)" fill="#fff"/>
    <path d="M.684,426.667v3.667H4.825a8.669,8.669,0,0,0,7.828,5.5H44.715a8.669,8.669,0,0,0,7.828-5.5h4.141v-3.667Z" transform="translate(0 -380.834)" fill="#fff"/>
  </g>
</svg>