<svg xmlns="http://www.w3.org/2000/svg" width="55" height="55" viewBox="0 0 55 55">
  <path d="M83.262,292.571H64.494a.494.494,0,0,0-.494.494v.988a.494.494,0,0,0,.494.494H83.262a.494.494,0,0,0,.494-.494v-.988A.494.494,0,0,0,83.262,292.571Z" transform="translate(-57.085 -261.149)" fill="#fff"/>
  <path d="M82.78,348.9H97.6a.494.494,0,0,0,.494-.494V329.637a.494.494,0,0,0-.494-.494H82.78a.494.494,0,0,0-.494.494v18.768A.494.494,0,0,0,82.78,348.9Zm11.36-10.866a.988.988,0,0,1,1.976,0v1.976a.988.988,0,1,1-1.976,0Z" transform="translate(-73.467 -293.899)" fill="#fff"/>
  <path d="M8.89,120.58v-.988H3.951a.988.988,0,0,1,0-1.976H21.12a11.863,11.863,0,0,1-5.136-7.9H8.1a2.974,2.974,0,0,0-2.508,1.374l-5.441,8.55a1.009,1.009,0,0,0-.151.526v.415a1.976,1.976,0,0,0,1.976,1.976H6.915A1.976,1.976,0,0,0,8.89,120.58Z" transform="translate(0 -97.949)" fill="#fff"/>
  <path d="M102.547,204.106h5.927a1.976,1.976,0,0,0,1.976-1.976v-.988h-9.878v.988A1.976,1.976,0,0,0,102.547,204.106Z" transform="translate(-89.781 -179.543)" fill="#fff"/>
  <path d="M9.878,19.756a9.842,9.842,0,0,1-5.52-1.69A9.919,9.919,0,0,1,.779,13.721a9.856,9.856,0,0,1,.908-9.366A9.906,9.906,0,0,1,6.033.776a9.865,9.865,0,0,1,9.368.911A9.907,9.907,0,0,1,18.98,6.033a9.865,9.865,0,0,1-.911,9.368,9.909,9.909,0,0,1-4.346,3.579A9.817,9.817,0,0,1,9.878,19.756ZM8.6,12.4v1.907h2.89A2.776,2.776,0,0,0,13.9,11.591,2.728,2.728,0,0,0,12.354,9.14a2.67,2.67,0,0,0,.153-.885A2.779,2.779,0,0,0,9.7,5.51H7.64A1.808,1.808,0,0,0,5.834,7.316v6.993H7.769V7.445H9.7a.843.843,0,0,1,.871.81.853.853,0,0,1-.871.81H8.6v1.717h2.5a.813.813,0,1,1,0,1.622Z" transform="translate(17.668)" fill="#fff"/>
  <path d="M210.286,202.131a1.976,1.976,0,0,0,1.976,1.976h5.927a1.975,1.975,0,0,0,1.976-1.976v-.988h-9.878Z" transform="translate(-187.725 -179.543)" fill="#fff"/>
  <path d="M69.631,234.45a3.9,3.9,0,0,1-2.944,1.34H60.8a3.905,3.905,0,0,1-2.944-1.34,3.9,3.9,0,0,1-2.944,1.34H49.021a3.9,3.9,0,0,1-2.944-1.34,3.905,3.905,0,0,1-2.944,1.34H37.243a3.905,3.905,0,0,1-2.944-1.34,3.905,3.905,0,0,1-2.944,1.34H27.429v27.658a.985.985,0,0,0,.981.988h2.454a.492.492,0,0,0,.491-.494V244.681a1.969,1.969,0,0,1-1.963-1.976v-1.976a1.969,1.969,0,0,1,1.963-1.976H50.984a1.969,1.969,0,0,1,1.963,1.976v1.976a1.969,1.969,0,0,1-1.963,1.976v19.262a.492.492,0,0,0,.491.494H75.52a.985.985,0,0,0,.981-.988V235.79H72.576A3.905,3.905,0,0,1,69.631,234.45Zm3.926,6.279v13.116a1.971,1.971,0,0,1,.981,1.7v1.976a1.969,1.969,0,0,1-1.963,1.976h-15.7a1.969,1.969,0,0,1-1.963-1.976v-1.976a1.971,1.971,0,0,1,.981-1.7V240.729a1.969,1.969,0,0,1,1.963-1.976h13.74A1.969,1.969,0,0,1,73.557,240.729Z" transform="translate(-24.465 -209.437)" fill="#fff"/>
  <path d="M324.192,292.571H311.351a.494.494,0,0,0-.494.494v7.9a.494.494,0,0,0,.494.494h12.841a.494.494,0,0,0,.494-.494v-7.9A.494.494,0,0,0,324.192,292.571Z" transform="translate(-277.589 -261.177)" fill="#fff"/>
  <path d="M337.48,119.63l-5.438-8.545a2.972,2.972,0,0,0-2.505-1.37h-7.884a11.863,11.863,0,0,1-5.136,7.9h17.169a.988.988,0,0,1,0,1.976h-4.939v.988a1.976,1.976,0,0,0,1.976,1.976h4.939a1.976,1.976,0,0,0,1.976-1.976v-.415A1.015,1.015,0,0,0,337.48,119.63Z" transform="translate(-282.637 -97.949)" fill="#fff"/>
  <path d="M327.9,204.106a1.976,1.976,0,0,0,1.976-1.976v-.988H320v.988a1.976,1.976,0,0,0,1.976,1.976Z" transform="translate(-285.668 -179.543)" fill="#fff"/>
  <path d="M324.192,393.143H311.351a.494.494,0,0,0-.494.494v.988a.494.494,0,0,0,.494.494h12.841a.494.494,0,0,0,.494-.494v-.988A.494.494,0,0,0,324.192,393.143Z" transform="translate(-277.589 -350.92)" fill="#fff"/>
  <path d="M301.714,429.714V431.2a.494.494,0,0,0,.494.494h14.817a.494.494,0,0,0,.494-.494v-.988a.494.494,0,0,0-.494-.494Z" transform="translate(-269.434 -383.604)" fill="#fff"/>
</svg>