<?xml version="1.0" encoding="utf-8"?>
<svg xmlns:xlink="http://www.w3.org/1999/xlink" xmlns="http://www.w3.org/2000/svg">
    <symbol class="bi bi-vkuster-car" id="vkuster-car" fill="currentColor" viewBox="0 0 21 19">
        <path d="M17.273,9.636h-.864V4.455A3.455,3.455,0,0,0,12.955,1h-9.5A3.455,3.455,0,0,0,0,4.455v9.5a2.586,2.586,0,0,0,1.789,2.451,2.936,2.936,0,0,0-.061.572,3.023,3.023,0,0,0,6.045,0,2.992,2.992,0,0,0-.035-.432H12.99a3.021,3.021,0,1,0,6.01.432,2.936,2.936,0,0,0-.061-.572,2.586,2.586,0,0,0,1.789-2.451v-.864A3.455,3.455,0,0,0,17.273,9.636Zm-15.545,0V6.182H3.455V9.636ZM5.182,6.182H6.909V9.636H5.182Zm3.455,0h2.591v8.636H8.636Zm4.318,0h1.727V9.636H12.955Zm-9.5-3.455h9.5a1.727,1.727,0,0,1,1.727,1.727H1.727A1.727,1.727,0,0,1,3.455,2.727ZM1.727,11.364H6.909v3.455H2.591a.864.864,0,0,1-.864-.864Zm4.318,5.614a1.3,1.3,0,0,1-2.591,0,1.218,1.218,0,0,1,.08-.432h2.43a1.218,1.218,0,0,1,.08.432Zm9.932,1.3a1.3,1.3,0,0,1-1.3-1.3,1.218,1.218,0,0,1,.08-.432h2.43a1.218,1.218,0,0,1,.08.432A1.3,1.3,0,0,1,15.977,18.273ZM19,13.955a.864.864,0,0,1-.864.864H12.955V11.364h4.318A1.727,1.727,0,0,1,19,13.091Z" transform="translate(0 -1)"/>
    </symbol>
</svg>