<svg xmlns="http://www.w3.org/2000/svg" width="16.305" height="11.647">
    <symbol class="bi bi-vkuster-card" id="vkuster-card-back" fill="currentColor" viewBox="0 0 16.305 11.647">
        <g transform="translate(-2.25 -6.75)">
            <path d="M18.555,7.915A1.168,1.168,0,0,0,17.391,6.75H3.415A1.168,1.168,0,0,0,2.25,7.915V9.662H18.555Z"/>
            <path d="M2.25,21.573a1.168,1.168,0,0,0,1.165,1.165H17.391a1.168,1.168,0,0,0,1.165-1.165V15.75H2.25Zm5.168-1.747h5.969a.511.511,0,0,1,.51.51h0a.511.511,0,0,1-.51.51H7.418a.511.511,0,0,1-.51-.51h0A.511.511,0,0,1,7.418,19.826Zm-2.621,0h.437a.511.511,0,0,1,.51.51h0a.511.511,0,0,1-.51.51H4.8a.511.511,0,0,1-.51-.51h0A.511.511,0,0,1,4.8,19.826Z" transform="translate(0 -4.341)"/>
        </g>
    </symbol>
</svg>