<?xml version="1.0" encoding="UTF-8" ?>
<svg xmlns="http://www.w3.org/2000/svg" width="18.79" height="18.399" viewBox="0 0 18.79 18.399">
    <symbol class="bi bi-vkuster-cart" id="vkuster-cart" fill="currentColor" viewBox="0 0 18.79 18.399">
        <g transform="translate(0 0)">
            <path d="M5.337,16.569A1.422,1.422,0,1,1,3.911,18,1.424,1.424,0,0,1,5.337,16.569Zm10.561,0A1.422,1.422,0,1,1,14.472,18,1.424,1.424,0,0,1,15.9,16.569Z" transform="translate(-0.239 -1.014)" />
            <path d="M.731,0l.1.008L3.066.346a.709.709,0,0,1,.582.638h0l.178,2.1a.573.573,0,0,0,.573.527H17.077a1.6,1.6,0,0,1,1.324.629,2,2,0,0,1,.357,1.614h0l-.892,6.158a2.4,2.4,0,0,1-2.375,2.056H5.248a2.393,2.393,0,0,1-2.384-2.2h0L2,1.641.583,1.4A.707.707,0,0,1,.01.59.718.718,0,0,1,.827.008ZM13.988,7.086h-2.6a.7.7,0,0,0,0,1.408h2.6a.7.7,0,1,0,0-1.408Z" transform="translate(0 0)" />
        </g>
    </symbol>
</svg>