<svg xmlns="http://www.w3.org/2000/svg" width="16.816" height="18.408">
  <symbol class="bi bi-vkuster-cart" id="vkuster-cart" fill="currentColor" stroke="currentColor" viewBox="0 0 16.816 18.408">
    <g transform="translate(-2.798 -1.998)">
      <g transform="translate(3.65 2.85)">
        <path d="M1.87,3.276C6.744,2.052,12.8,2.127,14.2,3.722s1.371,6.927-.265,8.39-8.741,1.6-10.992,0c-2.378-1.694-1-6.9-1.076-10.059C1.917.286,0,0,0,0" transform="translate(0)" fill="none" stroke-linecap="round" stroke-linejoin="round" stroke-width="1.5" fill-rule="evenodd"/>
        <line x2="2.537" transform="translate(9.613 7.201)" fill="none" stroke-linecap="round" stroke-linejoin="round" stroke-width="1.5"/>
        <path d="M3.567,17.277a.5.5,0,1,1-.5.5A.5.5,0,0,1,3.567,17.277Z" transform="translate(-0.261 -1.469)" stroke-linecap="round" stroke-linejoin="round" stroke-width="1.5" fill-rule="evenodd"/>
        <path d="M13.9,17.277a.5.5,0,1,1-.5.5A.5.5,0,0,1,13.9,17.277Z" transform="translate(-1.139 -1.469)" stroke-linecap="round" stroke-linejoin="round" stroke-width="1.5" fill-rule="evenodd"/>
      </g>
    </g>
  </symbol>
</svg>