<svg id="cashier" xmlns="http://www.w3.org/2000/svg" width="19.676" height="19.676" viewBox="0 0 37 37">
  <g transform="translate(9 9)">
    <path d="M19.1,14.119a.576.576,0,0,0,.576-.576v-2.47A.576.576,0,0,0,19.1,10.5H15.4a.576.576,0,0,0-.576.576v2.47a.576.576,0,0,0,.576.576h1.276v1.317H13.5V11.69a2.432,2.432,0,0,0-2.429-2.429H9.546a3.971,3.971,0,0,0,1.077-1.934h.449a1.811,1.811,0,0,0,0-3.623h-.35V.576A.576.576,0,0,0,10.147,0H3.355a.576.576,0,0,0-.576.576V3.7h-.35a1.811,1.811,0,1,0,0,3.623h.449A3.971,3.971,0,0,0,3.956,9.262H2.429A2.432,2.432,0,0,0,0,11.69V19.1a.576.576,0,0,0,.576.576H19.1a.576.576,0,0,0,.576-.576V16.013a.576.576,0,0,0-.576-.576H17.824V14.119ZM10.723,4.858h.35a.658.658,0,1,1,0,1.317h-.35ZM2.778,6.174h-.35a.658.658,0,0,1,0-1.317h.35Zm.309,12.349H1.153v-4.4H3.087Zm0-5.557H1.153V11.69a1.277,1.277,0,0,1,1.276-1.276h.658ZM3.931,1.153H9.57V3.087H3.931Zm0,5.289V4.24H9.57v2.2a2.819,2.819,0,1,1-5.639,0Zm4.515,3.972-1.7,1.7-1.7-1.7Zm.815,8.109H4.24V11.23l2.1,2.1a.576.576,0,0,0,.815,0l2.1-2.1Zm1.153-8.109h.658a1.277,1.277,0,0,1,1.276,1.276v1.276H10.415Zm0,3.7h1.934v1.317H10.415Zm8.109,2.47v1.934H10.415V16.589Zm-2.552-3.623V11.649h2.552v1.317Z" fill="#ef8126"/>
    <path d="M138.07,162.2a1.875,1.875,0,0,0,1.334-.552.576.576,0,1,0-.818-.813.733.733,0,0,1-1.03,0,.576.576,0,1,0-.82.811A1.874,1.874,0,0,0,138.07,162.2Z" transform="translate(-131.319 -154.493)" fill="#ef8126"/>
  </g>
</svg>