<svg xmlns="http://www.w3.org/2000/svg" width="64.304" height="11.408" viewBox="0 0 64.304 11.408">
  <path id="Path_3606" data-name="Path 3606" d="M3.536,0V-5.168L8.352,0H11.3L5.728-6.064,10.48-11.2H7.664L3.536-6.784V-11.2h-2.3V0ZM20-1.744c-.368,0-.56-.208-.56-.608v-2.7a2.784,2.784,0,0,0-1.056-2.3,4.245,4.245,0,0,0-2.752-.832,6.225,6.225,0,0,0-2.96.64v1.888a4.669,4.669,0,0,1,2.416-.672c1.408,0,2.112.5,2.112,1.5v.24a4.9,4.9,0,0,0-2.3-.5,3.7,3.7,0,0,0-2.224.672,2.254,2.254,0,0,0-.928,1.952A2.675,2.675,0,0,0,14.688.208,3.675,3.675,0,0,0,17.44-.88,1.764,1.764,0,0,0,19.248.144a1.93,1.93,0,0,0,1.216-.336V-1.84A.954.954,0,0,1,20-1.744Zm-2.8-.608a2.145,2.145,0,0,1-1.808.816c-.832,0-1.424-.336-1.424-1.04,0-.656.608-1.04,1.568-1.04a2.947,2.947,0,0,1,1.664.464ZM25.584,0V-6.1h2.528V-7.984h-7.28V-6.1h2.5V0ZM37.04-1.744c-.368,0-.56-.208-.56-.608v-2.7a2.784,2.784,0,0,0-1.056-2.3,4.245,4.245,0,0,0-2.752-.832,6.225,6.225,0,0,0-2.96.64v1.888a4.669,4.669,0,0,1,2.416-.672c1.408,0,2.112.5,2.112,1.5v.24a4.9,4.9,0,0,0-2.3-.5,3.7,3.7,0,0,0-2.224.672,2.254,2.254,0,0,0-.928,1.952A2.675,2.675,0,0,0,31.728.208,3.675,3.675,0,0,0,34.48-.88,1.764,1.764,0,0,0,36.288.144,1.93,1.93,0,0,0,37.5-.192V-1.84A.954.954,0,0,1,37.04-1.744Zm-2.8-.608a2.145,2.145,0,0,1-1.808.816c-.832,0-1.424-.336-1.424-1.04,0-.656.608-1.04,1.568-1.04a2.947,2.947,0,0,1,1.664.464ZM44.736-6.1V0h2.256V-7.984H40.1l-.048,2.352a10.93,10.93,0,0,1-.256,2.752c-.176.72-.512,1.024-1.04,1.024a1.356,1.356,0,0,1-.464-.064V-.08a1.879,1.879,0,0,0,.848.144,2.694,2.694,0,0,0,2.736-2.24,11.073,11.073,0,0,0,.368-2.8l.032-1.12ZM51.52-2.4A2.209,2.209,0,0,1,50.9-4a2.146,2.146,0,0,1,.624-1.584,2.1,2.1,0,0,1,1.584-.64,2.1,2.1,0,0,1,1.584.64A2.146,2.146,0,0,1,55.312-4a2.209,2.209,0,0,1-.624,1.6,2.1,2.1,0,0,1-1.584.64A2.1,2.1,0,0,1,51.52-2.4ZM48.672-4A4.032,4.032,0,0,0,49.92-.992,4.4,4.4,0,0,0,53.1.208a4.4,4.4,0,0,0,3.184-1.2A4.032,4.032,0,0,0,57.536-4a4.012,4.012,0,0,0-1.248-2.976A4.344,4.344,0,0,0,53.1-8.192,4.344,4.344,0,0,0,49.92-6.976,3.962,3.962,0,0,0,48.672-4ZM61.456,0V-6.1h4.08V-7.984H59.2V0Z" transform="translate(-1.232 11.2)" fill="#fff"/>
</svg>
