<svg xmlns="http://www.w3.org/2000/svg" width="45" height="55" viewBox="0 0 45 55">
  <path d="M207.086,280.959c4.842-.9,6.158-8.981,2.652-12.522a7.777,7.777,0,0,1-2.191,6.652A4.538,4.538,0,0,0,207.086,280.959Z" transform="translate(-183.901 -239.677)" fill="#fff"/>
  <path d="M162.931,260.318a4.539,4.539,0,0,0,.461-5.869c-4.842.9-6.158,8.981-2.652,12.522A7.776,7.776,0,0,1,162.931,260.318Z" transform="translate(-141.577 -227.188)" fill="#fff"/>
  <path d="M39.247,222.118a1.624,1.624,0,0,0,1.617,1.479H68.685a1.624,1.624,0,0,0,1.617-1.479l3.048-33.585H36.2Zm15.527-29.754c4.956,0,8.579,4.864,8.579,10.334-.426,13.75-16.78,13.637-17.157,0C46.2,197.131,49.9,192.363,54.774,192.363Z" transform="translate(-32.275 -168.596)" fill="#fff"/>
  <path d="M90.608,1.232A1.624,1.624,0,0,0,89.034,0H61.22a1.624,1.624,0,0,0-1.575,1.232l-.62,2.483h32.2Z" transform="translate(-52.627)" fill="#fff"/>
  <path d="M44.946,72.464,43.207,65.5a1.624,1.624,0,0,0-1.575-1.232H3.367A1.624,1.624,0,0,0,1.792,65.5L.053,72.464a1.636,1.636,0,0,0,1.575,2.02H43.371A1.636,1.636,0,0,0,44.946,72.464Z" transform="translate(0 -57.3)" fill="#fff"/>
</svg>
