<svg xmlns="http://www.w3.org/2000/svg" width="55" height="55" viewBox="0 0 55 55">
  <g transform="translate(-392 -1030.003)">
    <g transform="translate(392 1030.003)">
      <path d="M184.317,22.677A22.667,22.667,0,0,0,144.88,7.417a25.907,25.907,0,0,1,32.02,32.02A22.624,22.624,0,0,0,184.317,22.677Z" transform="translate(-129.317)" fill="#fff"/>
      <path d="M45.354,112.471a22.677,22.677,0,1,0-22.677,22.677A22.7,22.7,0,0,0,45.354,112.471Zm-39.424,0a16.747,16.747,0,1,1,16.747,16.747A16.766,16.766,0,0,1,5.93,112.471Z" transform="translate(0 -80.148)" fill="#fff"/>
      <path d="M98.728,202.047A13.524,13.524,0,1,0,85.2,188.523,13.54,13.54,0,0,0,98.728,202.047Z" transform="translate(-76.051 -156.2)" fill="#fff"/>
    </g>
  </g>
</svg>