<svg id="coins" xmlns="http://www.w3.org/2000/svg">
  <symbol class="bi bi-vkuster-coin" id="vkuster-coin" fill="currentColor" viewBox="0 0 37 37">
    <g transform="translate(8.775 9)">
      <path d="M297.186,275.429h-7.409a.576.576,0,0,0-.576.576v7.939a.576.576,0,0,0,.576.576h7.409a.576.576,0,0,0,.576-.576v-7.939A.576.576,0,0,0,297.186,275.429Zm-.576,7.939h-6.256v-1.493h6.256Zm0-2.646h-6.256v-1.493h6.256Zm0-2.646h-6.256v-1.493h6.256Z" transform="translate(-278.086 -264.844)"/>
      <path d="M9.838,0H2.429a.576.576,0,0,0-.576.576v2.07H1.811a.576.576,0,0,0-.576.576v2.07H1.194a.576.576,0,0,0-.576.576V8.515a.576.576,0,0,0,.576.576h.041v1.493H.576A.576.576,0,0,0,0,11.161v2.646a.576.576,0,0,0,.576.576h.658V19.1a.576.576,0,0,0,.576.576H9.221A.576.576,0,0,0,9.8,19.1V13.807a.576.576,0,0,0-.576-.576H8.562V11.738h.658a.576.576,0,0,0,.576-.576V8.515a.576.576,0,0,0-.576-.576H9.18V6.445h.041A.576.576,0,0,0,9.8,5.869V3.8h.041a.576.576,0,0,0,.576-.576V.576A.576.576,0,0,0,9.838,0ZM1.77,6.445H8.027V7.939H1.77Zm-.617,6.786V11.738H7.409v1.493Zm7.491,5.292H2.388V17.03H8.644Zm0-4.14v1.493H2.388V14.384Zm0-3.8H2.388V9.092H8.644Zm0-5.292H2.388V3.8H8.644Zm.617-2.646H3.005V1.153H9.262Z"/>
    </g>
  </symbol>
</svg>