<?xml version="1.0" encoding="UTF-8" ?>
<svg xmlns="http://www.w3.org/2000/svg" xmlns:xlink="http://www.w3.org/1999/xlink">
    <symbol class="bi bi-vkuster-discount" id="vkuster-discount" fill="currentColor" viewBox="0 0 20.186 20.186">
        <g transform="translate(-1.817 -2)">
            <g transform="translate(2 2)">
                <path d="M2.795,5.056A2.262,2.262,0,0,1,5.056,2.794H6.085a2.264,2.264,0,0,0,1.593-.657l.719-.72a2.262,2.262,0,0,1,3.2-.009h0l.009.008.72.72a2.26,2.26,0,0,0,1.593.657h1.028a2.262,2.262,0,0,1,2.262,2.262V6.083a2.262,2.262,0,0,0,.657,1.594l.72.72a2.262,2.262,0,0,1,.01,3.2h0l-.009.009-.72.72a2.256,2.256,0,0,0-.657,1.592v1.029a2.261,2.261,0,0,1-2.261,2.261H13.917a2.259,2.259,0,0,0-1.593.658l-.72.719a2.261,2.261,0,0,1-3.2.012l0,0-.009-.009-.719-.719a2.263,2.263,0,0,0-1.593-.658H5.056a2.261,2.261,0,0,1-2.261-2.261V13.916a2.257,2.257,0,0,0-.658-1.592l-.719-.72a2.26,2.26,0,0,1-.011-3.2l0,0L1.418,8.4l.719-.72a2.261,2.261,0,0,0,.658-1.594V5.056" fill="none" stroke="#fed972" stroke-linecap="round" stroke-linejoin="round" stroke-width="1.5" fill-rule="evenodd"/>
                <line y1="5.14" x2="5.14" transform="translate(7.432 7.432)" fill="none" stroke="#fed972" stroke-linecap="round" stroke-linejoin="round" stroke-width="1.5"/>
                <line x2="0.009" transform="translate(12.495 12.5)" fill="none" stroke="#fed972" stroke-linecap="round" stroke-linejoin="round" stroke-width="2"/>
                <line x2="0.009" transform="translate(7.496 7.5)" fill="none" stroke="#fed972" stroke-linecap="round" stroke-linejoin="round" stroke-width="2"/>
            </g>
        </g>
    </symbol>
</svg>