<svg xmlns="http://www.w3.org/2000/svg" width="84.111" height="55" viewBox="0 0 84.111 55">
  <path d="M84.11,28.33c0-.016,0-.031,0-.047a1.927,1.927,0,0,0-1.936-1.895h-.508L73.812,11.2a1.929,1.929,0,0,0-1.721-1.041l-13.405,0L59.2,6.1A5.51,5.51,0,0,0,53.644,0H12.038A2.056,2.056,0,0,0,10,1.854L9.586,5.2h23.7a2.7,2.7,0,0,1,2.714,2.788,2.878,2.878,0,0,1-2.86,2.788H25.238l0,.012H2.023A2.035,2.035,0,0,0,0,12.755,1.91,1.91,0,0,0,1.92,14.726H32.66a2.89,2.89,0,0,1,2.454,2.949,3.083,3.083,0,0,1-3.039,2.986H10.882a2.055,2.055,0,0,0-2.043,1.991,1.929,1.929,0,0,0,1.939,1.991H31.72a2.89,2.89,0,0,1,2.5,2.955,3.083,3.083,0,0,1-3.064,2.987H7.125v0H5.106a2.055,2.055,0,0,0-2.043,1.991A1.929,1.929,0,0,0,5,34.572H6.744l-.681,7.133a5.51,5.51,0,0,0,5.553,6.1h1.5A8.686,8.686,0,0,0,21.713,55a9.272,9.272,0,0,0,8.97-7.193H49.44a6.354,6.354,0,0,0,4.078-1.53,5.541,5.541,0,0,0,3.885,1.53h.309A8.686,8.686,0,0,0,66.305,55a9.272,9.272,0,0,0,8.97-7.193h1.238A6.54,6.54,0,0,0,82.89,41.96L84.1,28.516c0-.018,0-.036,0-.054s.006-.055.007-.083S84.11,28.346,84.11,28.33ZM21.818,51.017a4.829,4.829,0,0,1-4.847-4.979,5.144,5.144,0,0,1,5.107-4.979,4.829,4.829,0,0,1,4.846,4.979A5.144,5.144,0,0,1,21.818,51.017Zm44.592,0a4.829,4.829,0,0,1-4.847-4.979,5.144,5.144,0,0,1,5.107-4.979,4.829,4.829,0,0,1,4.846,4.979A5.144,5.144,0,0,1,66.41,51.017Zm12.514-9.312a2.4,2.4,0,0,1-2.305,2.119H75.279a8.686,8.686,0,0,0-8.5-6.748,9.274,9.274,0,0,0-8.857,6.748h-.41a1.69,1.69,0,0,1-1.272-.535,1.714,1.714,0,0,1-.419-1.329l2.51-27.82h5.765l-.914,10.127a5.51,5.51,0,0,0,5.553,6.1H79.946Z" fill="#fff"/>
</svg>