<svg xmlns="http://www.w3.org/2000/svg" width="14.432" height="16.494">
  <symbol class="bi bi-vkuster-fire" id="vkuster-fire" fill="currentColor" viewBox="0 0 14.432 16.494">
    <path d="M10.423,1.649A19.245,19.245,0,0,0,8.612,3.581,25,25,0,0,0,5.412,0C2.247,2.937,0,6.764,0,9.072a7.321,7.321,0,0,0,7.216,7.422,7.321,7.321,0,0,0,7.216-7.422c0-1.716-1.675-5.256-4.009-7.422ZM9.8,12.623a4.33,4.33,0,0,1-2.488.778A3.967,3.967,0,0,1,3.093,9.367c0-1.244.783-2.34,2.345-4.212.223.257,3.184,4.038,3.184,4.038L10.51,7.038c.133.221.255.437.363.643A3.843,3.843,0,0,1,9.8,12.623Z"/>
  </symbol>
</svg>