<svg xmlns="http://www.w3.org/2000/svg" width="37" height="37" viewBox="0 0 37 37">
  <g transform="translate(8.775 11.433)">
    <path d="M232.919,147.069h-.783a1.81,1.81,0,0,0-2.922-1.982,1.81,1.81,0,0,0-2.922,1.982h-.783a.576.576,0,0,0-.576.576v2.47a.576.576,0,0,0,.576.576h.041v1.893a.576.576,0,0,0,.576.576H232.3a.576.576,0,0,0,.576-.576v-1.893h.041a.576.576,0,0,0,.576-.576v-2.47A.576.576,0,0,0,232.919,147.069Zm-4.281,4.94H226.7v-1.317h1.934Zm0-2.47h-2.552v-1.317h2.552Zm0-2.47h-.658a.658.658,0,1,1,.658-.658Zm1.153-.658a.658.658,0,1,1,.658.658h-.658Zm1.934,5.6h-1.934v-1.317h1.934Zm.617-2.47h-2.552v-1.317h2.552Z" transform="translate(-216.289 -142.129)" fill="#ef8126"/>
    <path d="M17.248,80.333H2.429A2.432,2.432,0,0,0,0,82.762v8.644a2.432,2.432,0,0,0,2.429,2.429H17.248a2.432,2.432,0,0,0,2.429-2.429V82.762A2.432,2.432,0,0,0,17.248,80.333Zm1.276,11.073a1.277,1.277,0,0,1-1.276,1.276H2.429a1.277,1.277,0,0,1-1.276-1.276V82.762a1.277,1.277,0,0,1,1.276-1.276H17.248a1.277,1.277,0,0,1,1.276,1.276Z" transform="translate(0 -80.333)" fill="#ef8126"/>
    <path d="M66.7,337.4H64.843a.576.576,0,1,0,0,1.153H66.7a.576.576,0,1,0,0-1.153Z" transform="translate(-61.797 -327.521)" fill="#ef8126"/>
    <path d="M64.843,145.753H66.7a.576.576,0,1,0,0-1.153H64.843a.576.576,0,1,0,0,1.153Z" transform="translate(-61.797 -142.13)" fill="#ef8126"/>
    <path d="M68.548,273.134h-3.7a.576.576,0,1,0,0,1.153h3.7a.576.576,0,0,0,0-1.153Z" transform="translate(-61.797 -265.725)" fill="#ef8126"/>
  </g>
</svg>