<?xml version="1.0" encoding="UTF-8" ?>
<svg xmlns:xlink="http://www.w3.org/1999/xlink"  xmlns="http://www.w3.org/2000/svg">
    <symbol class="bi bi-vkuster-groceries" id="vkuster-grocery" fill="currentColor" viewBox="0 0 22 22">
            <g id="bag">
                <g>
                    <g>
                        <path d="M13.063,5.5H11V4.125a4.125,4.125,0,1,0-8.25,0V5.5H.688A.688.688,0,0,0,0,6.188V19.25A2.753,2.753,0,0,0,2.75,22H7.563a.688.688,0,0,0,0-1.375H2.75A1.376,1.376,0,0,1,1.375,19.25V6.875H2.75v.688a.688.688,0,0,0,1.375,0V6.875h5.5v.688a.688.688,0,0,0,1.375,0V6.875h1.375v.688a.688.688,0,0,0,1.375,0V6.188A.688.688,0,0,0,13.063,5.5Zm-3.438,0h-5.5V4.125a2.75,2.75,0,1,1,5.5,0Z"/>
                    </g>
                </g>
                <g transform="translate(9.625 8.25)">
                    <g>
                        <path d="M235.688,194.75h-2.133a3.437,3.437,0,0,0-6.735,0h-2.133a.688.688,0,0,0-.687.688V203a2.753,2.753,0,0,0,2.75,2.75h6.875a2.753,2.753,0,0,0,2.75-2.75v-7.562A.688.688,0,0,0,235.688,194.75Zm-5.5-1.375a2.059,2.059,0,0,1,1.936,1.375h-3.872A2.059,2.059,0,0,1,230.188,193.375ZM235,203a1.376,1.376,0,0,1-1.375,1.375H226.75A1.376,1.376,0,0,1,225.375,203v-6.875h1.375v.688a.688.688,0,0,0,1.375,0v-.687h4.125v.688a.688.688,0,0,0,1.375,0v-.687H235Z" transform="translate(-224 -192)"/>
                    </g>
                </g>
            </g>
    </symbol>
</svg>