<svg xmlns="http://www.w3.org/2000/svg" width="19.182" height="21.824" viewBox="0 0 19.182 21.824">
    <path d="M32.918,15.388h1.918v1.279h1.279V7.715H34.836V8.994H33.558V8.355a7.033,7.033,0,1,1,14.067,0v.639H46.345V7.715H45.067v8.951h1.279V15.388h1.279v1.961a1.92,1.92,0,0,1-1.918,1.918H42.4a1.918,1.918,0,1,0,0,1.279h3.307a3.2,3.2,0,0,0,3.2-3.2V15.278a1.921,1.921,0,0,0,1.279-1.808V10.912A1.921,1.921,0,0,0,48.9,9.1V8.355a8.312,8.312,0,1,0-16.624,0V9.1A1.921,1.921,0,0,0,31,10.912V13.47a1.92,1.92,0,0,0,1.918,1.918Zm7.673,5.158a.639.639,0,1,1,.639-.639A.64.64,0,0,1,40.591,20.546ZM48.9,10.912V13.47a.64.64,0,0,1-.639.639H46.345V10.273h1.918A.64.64,0,0,1,48.9,10.912Zm-16.624,0a.64.64,0,0,1,.639-.639h1.918v3.836H32.918a.64.64,0,0,1-.639-.639Z" transform="translate(-31)" fill="#ef4925"/>
</svg>