<?xml version="1.0" encoding="UTF-8" ?>
<svg xmlns:xlink="http://www.w3.org/1999/xlink" xmlns="http://www.w3.org/2000/svg">
    <symbol class="bi bi-vkuster-heart" id="vkuster-heart" fill="currentColor" viewBox="0 0 18.776 17.837">
        <g transform="translate(0 0)">
            <path d="M5.9,0A5.86,5.86,0,0,1,7.614.31H7.67a.328.328,0,0,1,.084.055A3.31,3.31,0,0,1,8.346.61h0L8.7.77c.141.075.31.215.4.272a2.855,2.855,0,0,1,.282.177A5.881,5.881,0,0,1,13,0a5.484,5.484,0,0,1,1.746.272C18.213,1.4,19.462,5.2,18.419,8.524a11.949,11.949,0,0,1-2.825,4.515A36.1,36.1,0,0,1,9.651,17.7h0l-.235.142-.244-.151a35.761,35.761,0,0,1-5.979-4.656A12.141,12.141,0,0,1,.366,8.524C-.695,5.2.554,1.4,4.056.253a4.243,4.243,0,0,1,.835-.2H5A5.443,5.443,0,0,1,5.792,0h.1ZM14.26,2.967a.752.752,0,0,0-.948.469.768.768,0,0,0,.469.966,1.572,1.572,0,0,1,1,1.474h0v.029a.807.807,0,0,0,.178.582.787.787,0,0,0,.535.272.772.772,0,0,0,.742-.714h0V5.933A3.1,3.1,0,0,0,14.26,2.967Z" transform="translate(0 0)" />
        </g>
    </symbol>
    <symbol class="bi bi-vkuster-heart" id="vkuster-heart2" fill="none" stroke="currentColor" viewBox="0 0 18.895 17.12">
        <g transform="translate(0.92 0.983)">
            <g>
                <path d="M.334,7.986C-.63,4.979.5,1.24,3.654.224A4.372,4.372,0,0,1,8.529,1.741,4.247,4.247,0,0,1,13.395.224c3.156,1.016,4.289,4.755,3.327,7.763-1.5,4.767-6.73,7.25-8.193,7.25S1.883,12.809.334,7.986Z" transform="translate(0 0)" stroke-linecap="round" stroke-linejoin="round" stroke-width="1.8" fill-rule="evenodd"/>
                <path d="M13.238,4.014a1.934,1.934,0,0,1,1.721,2.174" transform="translate(-1.354 -0.41)" stroke-linecap="round" stroke-linejoin="round" stroke-width="1.8" fill-rule="evenodd"/>
            </g>
        </g>
    </symbol>
</svg>