<svg xmlns="http://www.w3.org/2000/svg" width="42.967" height="55" viewBox="0 0 42.967 55">
  <path d="M32.684,10.392A74.839,74.839,0,0,0,22.543.367a1.72,1.72,0,0,0-2.778,1.353V9.278a3.8,3.8,0,0,1-7.1,1.884,1.72,1.72,0,0,0-2.823-.237C4.64,17.273,0,25.276,0,33.516a21.484,21.484,0,0,0,42.967,0C42.967,25.063,38.086,16.853,32.684,10.392ZM12.031,27.5a3.437,3.437,0,1,1,3.437,3.437A3.441,3.441,0,0,1,12.031,27.5Zm4.794,14.8a1.719,1.719,0,0,1-2.713-2.11L26.142,24.727a1.719,1.719,0,0,1,2.713,2.11Zm10.674.664a3.437,3.437,0,1,1,3.437-3.437A3.441,3.441,0,0,1,27.5,42.969Z" fill="#fff"/>
</svg>