<?xml version="1.0" encoding="UTF-8" ?>
<svg xmlns="http://www.w3.org/2000/svg" xmlns:xlink="http://www.w3.org/1999/xlink">
    <symbol class="bi bi-vkuster-hot-sales" id="vkuster-hot-sales" fill="currentColor" viewBox="0 0 15.318 19.101">
        <g transform="translate(-50.69 0.348)">
            <path d="M63.767,6.564A20.444,20.444,0,0,1,60.76,2.332,9.743,9.743,0,0,1,60.031.617L59.868,0l-.582.26a5.821,5.821,0,0,0-2.579,2.568,5.871,5.871,0,0,0-.539,2.6.837.837,0,0,1-1.429.6L53.653,4.938l-.373.515c-.039.053-.951,1.311-1.117,1.563a7.409,7.409,0,1,0,13.595,4.079A7.042,7.042,0,0,0,63.767,6.564ZM58.349,17.418a6.325,6.325,0,0,1-5.281-9.8c.084-.128.423-.6.717-1.008l.185.185a1.922,1.922,0,0,0,3.281-1.369,4.793,4.793,0,0,1,.425-2.108,4.788,4.788,0,0,1,1.535-1.752,19.37,19.37,0,0,0,3.751,5.732,6.178,6.178,0,0,1,1.71,3.8A6.331,6.331,0,0,1,58.349,17.418Z" transform="translate(0)" fill="#e14024" stroke="#e14024" stroke-width="0.5"/>
            <path d="M195.519,254.5l-3.4,4.982h1.2l3.4-4.982Z" transform="translate(-136.07 -245.298)" fill="#e14024" stroke="#e14024" stroke-width="0.5"/>
            <path d="M270.971,317.472a1.389,1.389,0,1,0,1.324,1.388A1.277,1.277,0,0,0,270.971,317.472Zm0,2.007c-.157,0-.313-.142-.313-.619s.157-.619.313-.619.313.142.313.619S271.127,319.479,270.971,319.479Z" transform="translate(-210.796 -305.989)" fill="#e14024" stroke="#e14024" stroke-width="0.5"/>
            <path d="M171.348,253.924a1.325,1.325,0,1,0-1.324,1.388A1.277,1.277,0,0,0,171.348,253.924Zm-1.637,0c0-.477.157-.619.313-.619s.313.142.313.619-.157.619-.313.619S169.711,254.4,169.711,253.924Z" transform="translate(-113.5 -243.402)" fill="#e14024" stroke="#e14024" stroke-width="0.5"/>
        </g>
    </symbol>
</svg>