<svg xmlns="http://www.w3.org/2000/svg" width="48" height="55" viewBox="0 0 48 55">
  <path d="M91.505,229.66a70.105,70.105,0,0,1-18.769,8.277l-2.045.577v8h39.927V214.406l-.5.475A110.5,110.5,0,0,1,91.505,229.66Zm8.322,10.385H90.655v-3.237h9.172Zm4.316-6.475H90.655v-3.237h13.489Z" transform="translate(-62.618 -191.519)" fill="#fff"/>
  <path d="M185.691,225.028a7.569,7.569,0,0,0,.376,2.35q3.17-1.563,6.328-3.511a97.743,97.743,0,0,0,11.621-8.5,4.8,4.8,0,0,0-8.342-2.783l-1.029,1.137-1.19-.965a3.466,3.466,0,0,0-2.205-.781,3.508,3.508,0,0,0-2.917,5.454l.766,1.144-1.006.94A7.48,7.48,0,0,0,185.691,225.028Z" transform="translate(-165.348 -188.377)" fill="#fff"/>
  <path d="M322.31,94a1.619,1.619,0,1,0,1.619,1.619A1.62,1.62,0,0,0,322.31,94Z" transform="translate(-285.738 -83.905)" fill="#fff"/>
  <path d="M7.685,0,0,4.519,1.675,7.283,7.7,3.74V43.632l1.216-.338a61.549,61.549,0,0,0,8.711-3.008,10.586,10.586,0,0,1,1.915-10.632,6.6,6.6,0,0,1-.514-2.561,6.765,6.765,0,0,1,6.807-6.706,6.909,6.909,0,0,1,3.073.723,8.211,8.211,0,0,1,4.987-1.689A8.123,8.123,0,0,1,41.49,24.6q1.872-1.657,3.739-3.44l.008-.008L48,18.548V0ZM24.147,17.275a1.61,1.61,0,1,1,1.634-1.609A1.622,1.622,0,0,1,24.147,17.275Zm3.7-7.618a1.61,1.61,0,1,1,1.634-1.609A1.622,1.622,0,0,1,27.85,9.657Zm8.714,6.867a4.829,4.829,0,1,1,4.9-4.828A4.871,4.871,0,0,1,36.563,16.523Z" fill="#fff"/>
</svg>