<svg xmlns="http://www.w3.org/2000/svg">
    <symbol class="bi bi-vkuster-huawei" id="vkuster-huawei" fill="currentColor" viewBox="0 0 35.375 26.648">
        <path d="M5.409,8.387S2.682,11,2.535,13.752v.516a5.174,5.174,0,0,0,1.8,3.537c2.7,2.638,9.226,5.954,10.759,6.706a.136.136,0,0,0,.147-.015l.029-.059v-.059A81.145,81.145,0,0,0,5.409,8.387Zm8.814,18.364a.156.156,0,0,0-.147-.118L3.2,27.017c1.179,2.108,3.169,3.729,5.247,3.243,1.415-.368,4.657-2.623,5.719-3.39.088-.074.059-.133.059-.133Zm.118-1.15C9.565,22.374.31,17.437.31,17.437A6.644,6.644,0,0,0,0,19.353v.1a6.2,6.2,0,0,0,.59,2.682,6.453,6.453,0,0,0,3.449,3.243,6.1,6.1,0,0,0,2.063.457c.177.029,6.485,0,8.165,0a.155.155,0,0,0,.118-.074v-.088A.1.1,0,0,0,14.341,25.6ZM13.353,4.039A5.041,5.041,0,0,0,9.565,8.682v.6A7.525,7.525,0,0,0,9.8,10.834c.973,4.274,5.689,11.275,6.706,12.749a.141.141,0,0,0,.147.044.147.147,0,0,0,.088-.147C18.306,7.856,15.107,3.7,15.107,3.7a16.9,16.9,0,0,0-1.754.339ZM25.586,7.385a5.086,5.086,0,0,0-3.6-3.36s-.84-.206-1.724-.324c0,0-3.213,4.142-1.651,19.794a.127.127,0,0,0,.088.118.109.109,0,0,0,.147-.044c1.061-1.518,5.748-8.49,6.706-12.734a7.148,7.148,0,0,0,.029-3.449Zm-4.3,19.264s-.1,0-.133.074c0,0-.015.1.044.147,1.032.752,4.2,2.948,5.719,3.39a2.662,2.662,0,0,0,.634.088h.206c1.017-.029,2.8-.545,4.422-3.331l-10.907-.368Zm11.54-12.4c.206-3.036-2.859-5.851-2.859-5.866A81.007,81.007,0,0,0,20.133,24.3a.2.2,0,0,0,.029.192l.059.015h.088c1.562-.781,8.047-4.083,10.73-6.691A5.26,5.26,0,0,0,32.823,14.253Zm2.24,3.154s-9.256,4.967-14.031,8.18a.155.155,0,0,0-.044.162s.044.088.1.088c1.71,0,8.195,0,8.357-.029a6.385,6.385,0,0,0,5.365-3.773,6.545,6.545,0,0,0,.251-4.628Z" transform="translate(0 -3.7)" fill="#202020"/>
    </symbol>
</svg>