<svg xmlns="http://www.w3.org/2000/svg">
    <symbol class="bi bi-vkuster-instagram" id="vkuster-instagram" fill="currentColor" viewBox="0 0 22.5 22.5">
        <g transform="translate(-3.75 -3.75)">
            <path d="M19.688,5.625a4.7,4.7,0,0,1,4.688,4.688v9.375a4.7,4.7,0,0,1-4.687,4.688H10.313a4.7,4.7,0,0,1-4.687-4.687V10.313a4.7,4.7,0,0,1,4.688-4.687h9.375m0-1.875H10.313A6.582,6.582,0,0,0,3.75,10.313v9.375a6.582,6.582,0,0,0,6.563,6.563h9.375a6.582,6.582,0,0,0,6.563-6.562V10.313A6.582,6.582,0,0,0,19.688,3.75Z"/>
            <path d="M21.094,10.313A1.406,1.406,0,1,1,22.5,8.906,1.4,1.4,0,0,1,21.094,10.313Z"/>
            <path d="M15,11.25A3.75,3.75,0,1,1,11.25,15,3.753,3.753,0,0,1,15,11.25m0-1.875A5.625,5.625,0,1,0,20.625,15,5.626,5.626,0,0,0,15,9.375Z"/>
        </g>
    </symbol>
</svg>