<svg xmlns="http://www.w3.org/2000/svg">
  <symbol class="bi bi-vkuster-like" id="vkuster-like" fill="currentColor" viewBox="0 0 15.757 14.772">
    <path d="M2.79,8H1.149A1.15,1.15,0,0,0,0,9.149V16.7a1.15,1.15,0,0,0,1.149,1.149H2.79A1.15,1.15,0,0,0,3.939,16.7V9.149A1.15,1.15,0,0,0,2.79,8Z" transform="translate(0 -3.24)" filter="brightness(85%) "/>
    <path d="M15.708,6h-3.1A6.34,6.34,0,0,0,13.1,3.376,2.411,2.411,0,0,0,10.967.75c-.657,0-.985.328-.985,1.97,0,1.56-1.511,2.815-2.482,3.462v8.133a15.3,15.3,0,0,0,6.422,1.207h1.05a2.622,2.622,0,0,0,2.587-2.18l.735-4.268A2.625,2.625,0,0,0,15.708,6Z" transform="translate(-2.576 -0.75)" />
  </symbol>
  <symbol class="bi bi-vkuster-dislike" id="vkuster-dislike" fill="currentColor" viewBox="0 0 15.757 14.772">
    <g id="like" transform="translate(15.757 14.772) rotate(180)">
      <path d="M2.79,8H1.149A1.15,1.15,0,0,0,0,9.149V16.7a1.15,1.15,0,0,0,1.149,1.149H2.79A1.15,1.15,0,0,0,3.939,16.7V9.149A1.15,1.15,0,0,0,2.79,8Z" transform="translate(0 -3.24)" filter="brightness(85%)"/>
      <path d="M15.708,6h-3.1A6.34,6.34,0,0,0,13.1,3.376,2.411,2.411,0,0,0,10.967.75c-.657,0-.985.328-.985,1.97,0,1.56-1.511,2.815-2.482,3.462v8.133a15.3,15.3,0,0,0,6.422,1.207h1.05a2.622,2.622,0,0,0,2.587-2.18l.735-4.268A2.625,2.625,0,0,0,15.708,6Z" transform="translate(-2.576 -0.75)" />
    </g>
  </symbol>
</svg>