<svg xmlns="http://www.w3.org/2000/svg" width="176.304" height="26.506" viewBox="0 0 176.304 26.506">
    <g id="Group_84" transform="translate(-174.649 -361.331)">
        <path id="Path_3239" d="M11267.963,7018.149v-14.177h12.88v-5.533H11265.2a2.767,2.767,0,0,0-2.767,2.767v19.71a2.767,2.767,0,0,0,2.767,2.767h15.991v-5.533Zm10.3-10.138h-7.928v5.257h7.928Zm0,5.257v0Z" transform="translate(-10957.369 -6636.477)" fill="#e14024"/>
        <path id="Path_3240" d="M9656.23,7003.973h20.113v-5.533H9656.23Zm7.118,19.71h5.532v-17.337h-5.532Z" transform="translate(-9376.284 -6636.478)" fill="#e14024"/>
        <path id="Path_3241" d="M8032.175,6984.557c-6.8,0-12.336-5.946-12.336-13.253s5.534-13.253,12.336-13.253a12.231,12.231,0,0,1,10.811,6.869l-4.88,2.5a6.781,6.781,0,0,0-5.931-3.884c-3.78,0-6.854,3.486-6.854,7.771s3.074,7.771,6.854,7.771a6.785,6.785,0,0,0,5.978-3.978l4.912,2.434A12.226,12.226,0,0,1,8032.175,6984.557Z" transform="translate(-7765.479 -6596.719)" fill="#e14024"/>
        <path id="Path_3242" d="M6394.683,7014.947a2.768,2.768,0,0,0,2.593-3.727l-4.728-12.78h-5.9l5.437,14.7A2.769,2.769,0,0,0,6394.683,7014.947Zm8.979-16.507-4.626,15.065c-.974,3.17-2.886,4.989-5.247,4.989a4.554,4.554,0,0,1-2.887-1.031l-3.4,4.363a10.025,10.025,0,0,0,6.289,2.2c4.886,0,8.825-3.326,10.536-8.9l5.125-16.69Z" transform="translate(-6157.825 -6636.478)" fill="#e14024"/>
        <path id="Path_3243" d="M4764.93,7023.683h5.533v-25.244h-5.533Zm17.987-9.114a10.748,10.748,0,0,0-2.88-3.646l4.759-12.483h-5.921l-3.8,9.96a9.513,9.513,0,0,0-1.878-.263l-.364-.012v5.536l.182,0a6.514,6.514,0,0,1,4.88,3.231l3.147,6.786h6.1Z" transform="translate(-4561.461 -6636.477)" fill="#e14024"/>
        <path id="Path_3244" d="M2940.365,7008.821a7.625,7.625,0,0,0,.438-2.533,7.947,7.947,0,0,0-8.023-7.849h-5.9a5.171,5.171,0,0,0-5.165,5.165v20h5.533v-19.632h5.528a2.411,2.411,0,0,1,2.49,2.316,2.439,2.439,0,0,1-2.49,2.316h-3.155v4.909h7.143a2.324,2.324,0,1,1,0,4.637h-7.143v5.454h8.264a7.919,7.919,0,0,0,6.9-7.773A7.836,7.836,0,0,0,2940.365,7008.821Z" transform="translate(-2747.07 -6636.478)" fill="#e14024"/>
        <path id="Path_3245" d="M12896.419,7006.708a8.333,8.333,0,0,0-8.179-8.268h-8.011a4.486,4.486,0,0,0-4.479,4.479v20.7h5.533v-19.646h6.957a2.736,2.736,0,0,1,0,5.469h-4.584v5.533h4.584A8.332,8.332,0,0,0,12896.419,7006.708Z" transform="translate(-12545.466 -6636.478)" fill="#e14024"/>
    </g>
</svg>