<svg xmlns="http://www.w3.org/2000/svg" width="176.198" height="46.504" viewBox="0 0 176.198 46.504">
    <g transform="translate(-174.394 -25.43)">
        <path d="M2916.45,2324.326v-7.636h7.622v7.636h-2.661v-5.5h-2.3v5.5Z" transform="translate(-2742.057 -2255.49)" fill="#e14024"/>
        <path d="M3527.958,2308.184a1.632,1.632,0,0,0-1.608-1.759,1.682,1.682,0,0,0-1.519.812v1.895a1.682,1.682,0,0,0,1.519.812A1.632,1.632,0,0,0,3527.958,2308.184Zm-5.788,6.825v-10.643h2.66v.856a2.658,2.658,0,0,1,2.286-1.052,3.155,3.155,0,0,1,2.495,1.157,4.208,4.208,0,0,1,.993,2.856,4.251,4.251,0,0,1-.993,2.872,3.143,3.143,0,0,1-2.495,1.142,2.713,2.713,0,0,1-2.286-1.052v3.863Z" transform="translate(-3338.32 -2243.166)" fill="#e14024"/>
        <path d="M4122.49,2306.44a1.677,1.677,0,0,0-1.684,1.744,1.685,1.685,0,1,0,3.368,0A1.677,1.677,0,0,0,4122.49,2306.44Zm0,5.759a4.3,4.3,0,0,1-3.082-1.142,3.976,3.976,0,0,1,0-5.728,4.681,4.681,0,0,1,6.164,0,3.977,3.977,0,0,1,0,5.728A4.3,4.3,0,0,1,4122.49,2312.2Z" transform="translate(-3925.036 -2243.166)" fill="#e14024"/>
        <path d="M4712.488,2322.192v-3.4h-1.834a12.608,12.608,0,0,1-.5,3.4Zm-5.938,3.925v-3.925h.962a8.088,8.088,0,0,0,.752-3.788l.044-1.713h6.8v5.5h1.172v3.925h-2.511v-1.79h-4.675v1.79Z" transform="translate(-4504.21 -2255.49)" fill="#e14024"/>
        <path d="M5364.832,2327.079v-2.286a2.264,2.264,0,0,0,1.232.361,1.408,1.408,0,0,0,1.413-1.082l-3.248-7.382h2.827l1.7,4.6,1.594-4.6h2.766l-3.412,8.4a3.266,3.266,0,0,1-3.172,2.33A3.993,3.993,0,0,1,5364.832,2327.079Z" transform="translate(-5151.623 -2255.49)" fill="#e14024"/>
        <path d="M5999.8,2324.326v-7.636h2.662v2.706l2.27-2.706h3.142l-3.021,3.427,3.518,4.209h-3.322l-2.586-3.157v3.157Z" transform="translate(-5777.271 -2255.49)" fill="#e14024"/>
        <path d="M6561.48,2324.326v-5.5h-2.21v-2.134h7.1v2.134h-2.225v5.5Z" transform="translate(-6328.006 -2255.49)" fill="#e14024"/>
        <path d="M7090.052,2316.65h2.617v7.637h-2.617Zm-5.276,5.682h.827c.646,0,1.037-.315,1.037-.856s-.391-.872-1.037-.872h-.827Zm-2.616,1.955v-7.637h2.616v2.09h1.248a3.621,3.621,0,0,1,2.375.752,2.479,2.479,0,0,1,.9,2.014,2.657,2.657,0,0,1-.827,1.985,3.183,3.183,0,0,1-2.315.8Z" transform="translate(-6842.734 -2255.451)" fill="#e14024"/>
        <path d="M8121.2,2308.184a1.631,1.631,0,0,0-1.608-1.759,1.679,1.679,0,0,0-1.519.812v1.895a1.678,1.678,0,0,0,1.519.812A1.631,1.631,0,0,0,8121.2,2308.184Zm-5.788,6.825v-10.643h2.661v.856a2.656,2.656,0,0,1,2.285-1.052,3.157,3.157,0,0,1,2.5,1.157,4.206,4.206,0,0,1,.993,2.856,4.249,4.249,0,0,1-.993,2.872,3.145,3.145,0,0,1-2.5,1.142,2.713,2.713,0,0,1-2.285-1.052v3.863h-2.661Z" transform="translate(-7859.853 -2243.166)" fill="#e14024"/>
        <path d="M8703.257,2320.108v-1.428h-1.081a.724.724,0,1,0,0,1.428Zm-5.276,4.179,1.94-2.857a2.277,2.277,0,0,1-1.308-2.209c0-1.458,1.006-2.572,3.111-2.572h4.194v7.638h-2.662v-2.376h-.721l-1.593,2.376Z" transform="translate(-8433.329 -2255.451)" fill="#e14024"/>
        <path d="M9290.31,2322.192v-3.4h-1.835a12.667,12.667,0,0,1-.5,3.4Zm-5.94,3.925v-3.925h.963a8.054,8.054,0,0,0,.751-3.788l.046-1.713h6.8v5.5h1.172v3.925h-2.512v-1.79h-4.675v1.79Z" transform="translate(-9010.563 -2255.49)" fill="#e14024"/>
        <path d="M9964.729,2306.44a1.677,1.677,0,0,0-1.684,1.744,1.685,1.685,0,1,0,1.684-1.744Zm0,5.759a4.293,4.293,0,0,1-3.081-1.142,3.977,3.977,0,0,1,0-5.728,4.682,4.682,0,0,1,6.164,0,3.979,3.979,0,0,1,0,5.728A4.3,4.3,0,0,1,9964.729,2312.2Z" transform="translate(-9676.069 -2243.166)" fill="#e14024"/>
        <path d="M10597.87,2324.326v-7.636h2.632l1.819,2.511,1.816-2.511h2.633v7.636h-2.511v-4.089l-1.413,1.954h-1.051l-1.415-1.954v4.089Z" transform="translate(-10303.559 -2255.49)" fill="#e14024"/>
        <path d="M11285.31,2139.322a1.573,1.573,0,0,1,1.579,1.594,1.5,1.5,0,0,1-.465,1.113,1.484,1.484,0,0,1-1.113.466,1.563,1.563,0,0,1-1.579-1.578A1.572,1.572,0,0,1,11285.31,2139.322Zm-1.2-.676-.617-6.886h3.653l-.615,6.886Z" transform="translate(-10978.475 -2073.447)" fill="#e14024"/>
        <path d="M11273.215,85.51V71.354h12.86V65.83h-15.625a2.762,2.762,0,0,0-2.761,2.762v19.68a2.762,2.762,0,0,0,2.761,2.762h15.968V85.51Zm10.284-10.122h-7.915v5.248h7.915Zm0,5.248v0Z" transform="translate(-10962.921 -39.769)" fill="#e14024"/>
        <path d="M9661.491,71.354h20.083V65.83h-20.083Zm7.107,19.68h5.524V73.724H9668.6Z" transform="translate(-9381.799 -39.769)" fill="#e14024"/>
        <path d="M8037.446,51.9c-6.792,0-12.316-5.936-12.316-13.233s5.524-13.232,12.316-13.232a12.211,12.211,0,0,1,10.794,6.858l-4.872,2.494a6.77,6.77,0,0,0-5.922-3.878c-3.773,0-6.843,3.481-6.843,7.759s3.07,7.76,6.843,7.76a6.775,6.775,0,0,0,5.969-3.971l4.9,2.43A12.2,12.2,0,0,1,8037.446,51.9Z" transform="translate(-7770.983)" fill="#e14024"/>
        <path d="M6399.931,82.311a2.764,2.764,0,0,0,2.59-3.721L6397.8,65.83h-5.89l5.43,14.676A2.76,2.76,0,0,0,6399.931,82.311ZM6408.9,65.83l-4.62,15.042c-.972,3.165-2.881,4.981-5.238,4.981a4.55,4.55,0,0,1-2.882-1.03l-3.4,4.356a10.007,10.007,0,0,0,6.279,2.2c4.879,0,8.812-3.321,10.521-8.884l5.116-16.664Z" transform="translate(-6163.259 -39.769)" fill="#e14024"/>
        <path d="M4770.19,91.034h5.524V65.83h-5.524Zm17.96-9.1a10.735,10.735,0,0,0-2.875-3.642l4.751-12.463h-5.912l-3.792,9.945a9.573,9.573,0,0,0-1.876-.263l-.363-.012v5.527l.182.005a6.5,6.5,0,0,1,4.873,3.226l3.143,6.775h6.089Z" transform="translate(-4566.857 -39.769)" fill="#e14024"/>
        <path d="M2945.607,76.195a7.625,7.625,0,0,0,.437-2.528,7.934,7.934,0,0,0-8.01-7.836h-5.887a5.162,5.162,0,0,0-5.156,5.156v19.97h5.524v-19.6h5.519a2.407,2.407,0,0,1,2.486,2.313,2.436,2.436,0,0,1-2.486,2.313h-3.15v4.9h7.132a2.321,2.321,0,1,1,0,4.63h-7.132v5.446h8.251a7.908,7.908,0,0,0,6.891-7.762A7.827,7.827,0,0,0,2945.607,76.195Z" transform="translate(-2752.432 -39.769)" fill="#e14024"/>
        <path d="M12901.688,74.085a8.321,8.321,0,0,0-8.167-8.255h-8a4.478,4.478,0,0,0-4.472,4.473V90.97h5.523V71.354h6.946a2.732,2.732,0,0,1,0,5.461h-4.575v5.524h4.575A8.32,8.32,0,0,0,12901.688,74.085Z" transform="translate(-12551.096 -39.769)" fill="#e14024"/>
    </g>
</svg>