<svg xmlns="http://www.w3.org/2000/svg">
    <symbol class="bi bi-vkuster-mastercard" id="vkuster-mastercard" fill="currentColor" viewBox="0 0 39.775 24.58">
        <path d="M18.8,28.016c.1.081.2.162.3.242a12.291,12.291,0,1,1,0-20.476,2.536,2.536,0,0,0-.273.249A13.219,13.219,0,0,0,18.8,28.016ZM27.485,5.73a12.228,12.228,0,0,0-6.8,2.052,2.537,2.537,0,0,1,.273.249,13.219,13.219,0,0,1,.022,19.985c-.1.081-.2.162-.3.242A12.292,12.292,0,1,0,27.485,5.73Zm-7.6,2.635c-.159.124-.313.249-.464.383a12.283,12.283,0,0,0,0,18.545c.149.133.307.262.464.384.159-.123.313-.252.464-.384a12.283,12.283,0,0,0,0-18.545c-.149-.133-.3-.259-.464-.383Z" transform="translate(0 -5.73)"/>
    </symbol>
</svg>