<svg xmlns="http://www.w3.org/2000/svg" width="70.029" height="43.28" viewBox="0 0 70.029 43.28">
  <g id="layer1" transform="translate(-1551.785 -2007.046)">
    <g id="g13" transform="translate(1551.785 2007.046)">
      <g id="XMLID_328_" transform="translate(0 0)">
        <rect id="rect19" width="18.935" height="34.023" transform="translate(25.547 4.629)" fill="#ff5f00"/>
        <path id="XMLID_330_" d="M2925.484,2261.142a21.7,21.7,0,0,1,8.235-17.011,21.64,21.64,0,1,0,0,34.022A21.607,21.607,0,0,1,2925.484,2261.142Z" transform="translate(-2898.734 -2239.502)" fill="#eb001b"/>
        <path id="path22" d="M3434.152,2261.142a21.617,21.617,0,0,1-34.984,17.011,21.688,21.688,0,0,0,0-34.022,21.617,21.617,0,0,1,34.984,17.011Z" transform="translate(-3364.123 -2239.502)" fill="#f79e1b"/>
      </g>
    </g>
  </g>
</svg>
