<svg xmlns="http://www.w3.org/2000/svg" width="14.666" height="14.666">
  <symbol class="bi bi-vkuster-metro" id="vkuster-metro" fill="currentColor" viewBox="0 0 14.666 14.666">
    <path d="M7.351,0a7.333,7.333,0,1,0,0,14.666,7.285,7.285,0,0,0,7.315-7.3A7.431,7.431,0,0,0,7.351,0Zm0,13.693a6.361,6.361,0,0,1,0-12.722,6.361,6.361,0,0,1,0,12.722Z" />
    <path d="M30.444,22.643c-.457,0-.642.2-.843.605l-1.98,4.125H27.6l-2-4.125c-.2-.4-.385-.605-.843-.605a.716.716,0,0,0-.807.751v6.4a.554.554,0,0,0,.6.55.591.591,0,0,0,.623-.55V25.026H25.2l1.815,3.7a.628.628,0,0,0,1.174,0L30,25.026h.019v4.766a.59.59,0,0,0,.623.55.554.554,0,0,0,.6-.55v-6.4A.716.716,0,0,0,30.444,22.643Z" transform="translate(-20.269 -19.16)" />
  </symbol>
</svg>