<svg id="mir-logo" xmlns="http://www.w3.org/2000/svg" xmlns:xlink="http://www.w3.org/1999/xlink" width="89.873" height="25.44" viewBox="0 0 89.873 25.44">
  <defs>
    <linearGradient id="linear-gradient" y1="0.5" x2="1" y2="0.5" gradientUnits="objectBoundingBox">
      <stop offset="0.3" stop-color="#00b4e6"/>
      <stop offset="1" stop-color="#088ccb"/>
    </linearGradient>
  </defs>
  <g id="g5" transform="translate(0 0)">
    <path id="path7" d="M24.218,0V.011a4.694,4.694,0,0,0-4.444,3.333c-.855,3.066-3.266,11.531-3.333,11.765h-.667S13.309,6.454,12.442,3.333A4.7,4.7,0,0,0,8,0H0V25.44H8V10.332h.667L13.331,25.44h5.555l4.666-15.1h.667v15.1h8V0Z" transform="translate(0 0)" fill="#4db45e" fill-rule="evenodd"/>
  </g>
  <g id="g9" transform="translate(35.661 0)">
    <path id="path11" d="M338.775,0a4.481,4.481,0,0,0-3.444,2.666l-5.666,12.442H329V0h-8V25.44h7.554a4.612,4.612,0,0,0,3.555-2.666l5.555-12.442h.667V25.44h8V0Z" transform="translate(-321)" fill="#4db45e" fill-rule="evenodd"/>
  </g>
  <g id="g13" transform="translate(64.544 11.554)">
    <path id="path15" d="M581,104v13.886h8v-8.11h8.665A8.654,8.654,0,0,0,605.829,104Z" transform="translate(-581 -104)" fill="#4db45e" fill-rule="evenodd"/>
  </g>
  <g id="g17" transform="translate(63.422 0)">
    <path id="path24" d="M588.686,0H570.9a12.778,12.778,0,0,0,9.221,10h0a12.781,12.781,0,0,0,3.344.444h13.709a8.531,8.531,0,0,0,.178-1.777A8.662,8.662,0,0,0,588.686,0Z" transform="translate(-570.9)" fill-rule="evenodd" fill="url(#linear-gradient)"/>
  </g>
</svg>
