<?xml version="1.0" encoding="UTF-8" ?>
<svg xmlns:xlink="http://www.w3.org/1999/xlink" xmlns="http://www.w3.org/2000/svg">
    <symbol class="bi bi-vkuster-moto" id="vkuster-moto" fill="currentColor" viewBox="0 0 22.143 18.858">
        <g>
            <path d="M21.484,93.766a.648.648,0,0,0,.612-.647,3.335,3.335,0,0,0-3.411-3.329h-.632l-.773-3.667a2.105,2.105,0,0,0-.834-4.037H13.457a.648.648,0,0,0-.648.649v.808H11.216a.649.649,0,0,0,0,1.3h1.593v.808a.648.648,0,0,0,.648.649h.288a3.626,3.626,0,0,0-.861,2.348v3.692a.034.034,0,0,1-.034.034H10.232a.034.034,0,0,1-.033-.025l-.706-2.387a1.336,1.336,0,0,0,.989-1.289A2.657,2.657,0,0,0,7.83,86.014H1.992a1.995,1.995,0,0,0-.278,3.97A5.007,5.007,0,0,0,.041,93.722v2.02a.648.648,0,0,0,.648.649H1.25a3.289,3.289,0,0,0,6.451,0h7.926a3.29,3.29,0,1,0,5.857-2.624Zm-.79-1.3H19.235a3.252,3.252,0,0,0-1.06.048v-1.43h.51a2.084,2.084,0,0,1,2.009,1.383ZM14.1,83.382h2.341a.808.808,0,0,1,0,1.616H14.1ZM10.232,93.667h2.617a1.332,1.332,0,0,0,1.33-1.332V88.644a2.346,2.346,0,0,1,1.826-2.286l.874,4.148v2.6a3.3,3.3,0,0,0-1.252,1.985H9.185a4.624,4.624,0,0,0-4.624-4.069,4.443,4.443,0,0,0-2.788.95A3.716,3.716,0,0,1,5.051,90h3.1l.8,2.71a1.338,1.338,0,0,0,1.275.954ZM1.389,95.092a3.421,3.421,0,0,1,.859-1.8,3.123,3.123,0,0,1,2.313-.976,3.339,3.339,0,0,1,3.311,2.771H1.389Zm.6-6.387a.7.7,0,0,1,0-1.395H7.83a1.359,1.359,0,0,1,1.356,1.358c-.006.027-.048.044-.128.037H1.992Zm2.483,9.032A2,2,0,0,1,2.59,96.39H6.361A2,2,0,0,1,4.475,97.738Zm14.377,0a2,2,0,1,1,1.994-2A2,2,0,0,1,18.853,97.738Z" transform="translate(0 -80.177)" fill=""/>
            <ellipse cx="0.652" cy="0.653" rx="0.652" ry="0.653" transform="translate(18.2 14.911)" fill=""/>
            <path d="M1.276,100.74H7.087a.649.649,0,0,0,0-1.3H1.276a.649.649,0,0,0,0,1.3Z" transform="translate(-0.601 -96.785)" fill=""/>
            <path d="M51.048,39.273h5.861a.649.649,0,0,0,0-1.3H51.048a.649.649,0,0,0,0,1.3Z" transform="translate(-48.22 -37.976)" fill=""/>
        </g>
    </symbol>
</svg>