<svg xmlns="http://www.w3.org/2000/svg" width="36" height="36" viewBox="0 0 37 37">
    <g transform="translate(8 -28)">
        <path d="M19.091,92.465a.576.576,0,0,0,.544-.575A2.964,2.964,0,0,0,16.6,88.932h-.562l-.687-3.259a1.871,1.871,0,0,0-.741-3.588H11.958a.576.576,0,0,0-.576.576v.718H9.967a.576.576,0,0,0,0,1.153h1.415v.718a.576.576,0,0,0,.576.576h.256a3.222,3.222,0,0,0-.765,2.087v3.28a.03.03,0,0,1-.03.03H9.092a.031.031,0,0,1-.029-.022l-.627-2.121a1.187,1.187,0,0,0,.879-1.145,2.361,2.361,0,0,0-2.357-2.36H1.77A1.773,1.773,0,0,0,1.524,89.1,4.45,4.45,0,0,0,.036,92.425V94.22a.576.576,0,0,0,.576.576h.5a2.923,2.923,0,0,0,5.733,0h7.043a2.924,2.924,0,1,0,5.2-2.332Zm-.7-1.151h-1.3a2.89,2.89,0,0,0-.942.042V90.085H16.6a1.852,1.852,0,0,1,1.786,1.229Zm-5.856-8.076h2.08a.718.718,0,0,1,0,1.436h-2.08ZM9.092,92.377h2.326A1.184,1.184,0,0,0,12.6,91.194v-3.28a2.085,2.085,0,0,1,1.623-2.031L15,89.568v2.311a2.932,2.932,0,0,0-1.113,1.764H8.162a4.109,4.109,0,0,0-4.109-3.616,3.948,3.948,0,0,0-2.477.844,3.3,3.3,0,0,1,2.912-1.751H7.247l.712,2.408a1.189,1.189,0,0,0,1.133.848ZM1.235,93.644A3.04,3.04,0,0,1,2,92.049a2.775,2.775,0,0,1,2.056-.868A2.967,2.967,0,0,1,7,93.644H1.235Zm.536-5.676a.62.62,0,0,1,0-1.239H6.958a1.207,1.207,0,0,1,1.205,1.207c0,.024-.043.039-.114.032H1.77Zm2.206,8.026A1.775,1.775,0,0,1,2.3,94.8H5.652A1.775,1.775,0,0,1,3.977,95.994Zm12.776,0a1.774,1.774,0,1,1,1.772-1.774A1.775,1.775,0,0,1,16.753,95.994Z" transform="translate(0 -42.414)" fill="#ef8126"/>
        <ellipse cx="0.58" cy="0.58" rx="0.58" ry="0.58" transform="translate(16.173 51.226)" fill="#ef8126"/>
        <path d="M1.2,100.6H6.368a.576.576,0,0,0,0-1.153H1.2a.576.576,0,0,0,0,1.153Z" transform="translate(-0.604 -59.105)" fill="#ef8126"/>
        <path d="M50.976,39.129h5.208a.576.576,0,0,0,0-1.153H50.976a.576.576,0,0,0,0,1.153Z" transform="translate(-48.463)" fill="#ef8126"/>
    </g>
</svg>