<svg xmlns="http://www.w3.org/2000/svg">
    <symbol class="bi bi-vkuster-ok" id="vkuster-ok" fill="currentColor" viewBox="0 0 14.294 23.77">
        <path d="M12.842,15.5A10.228,10.228,0,0,1,8.665,16.75l.97.956,3.541,3.541c1.295,1.327-.812,3.4-2.121,2.121-.886-.9-2.186-2.2-3.541-3.555l-3.541,3.55C2.664,24.64.556,22.547,1.865,21.243c.9-.9,2.186-2.2,3.541-3.541l.956-.956a10.181,10.181,0,0,1-4.2-1.248C.645,14.522-.019,13.951.566,12.759c.343-.678,1.286-1.248,2.534-.265a7.528,7.528,0,0,0,4.4,1.341,7.528,7.528,0,0,0,4.4-1.341c1.248-.979,2.186-.413,2.534.265C15.018,13.951,14.355,14.522,12.842,15.5ZM1.48,6.02A6.02,6.02,0,1,1,7.5,12.025,6.024,6.024,0,0,1,1.48,6.02Zm3.063,0A2.956,2.956,0,1,0,7.5,3.049,2.961,2.961,0,0,0,4.543,6.02Z" transform="translate(-0.355)"/>
    </symbol>
</svg>