<svg xmlns="http://www.w3.org/2000/svg" width="53" height="55" viewBox="0 0 53 55">
    <path d="M198.656,264.828H185.25v3.833h13.406Z" transform="translate(-165.453 -236.402)" fill="#fff"/>
    <path d="M2.838,194.161,1.7,215.19H51.3l-1.142-21.029a.973.973,0,0,1,.023-.268L53,181.524a.974.974,0,0,0-.142-.5.957.957,0,0,0-.379-.353.989.989,0,0,0-1.1.1,2.881,2.881,0,0,1-3.834-.213l-1.223-1.219a1,1,0,0,0-1.416,0l-1.079,1.076a2.888,2.888,0,0,1-4.073,0l-1.078-1.076a1,1,0,0,0-1.416,0l-1.079,1.076a2.888,2.888,0,0,1-4.073,0l-1.078-1.076a1,1,0,0,0-1.416,0l-1.079,1.076a2.888,2.888,0,0,1-4.073,0l-1.079-1.076a1,1,0,0,0-1.416,0l-1.079,1.076a2.888,2.888,0,0,1-4.073,0l-1.079-1.076a1,1,0,0,0-1.416,0l-1.078,1.076a2.888,2.888,0,0,1-4.073,0l-1.079-1.076a1,1,0,0,0-1.416,0l-1.223,1.219a2.881,2.881,0,0,1-3.834.213.989.989,0,0,0-1.1-.1.957.957,0,0,0-.379.353.973.973,0,0,0-.142.5l2.816,12.369A.974.974,0,0,1,2.838,194.161Zm15.144-6.76a.964.964,0,0,1,.277-.678.94.94,0,0,1,.669-.281H34.071a.94.94,0,0,1,.669.281.964.964,0,0,1,.277.678v5.75a.965.965,0,0,1-.277.678.941.941,0,0,1-.669.281H18.929a.941.941,0,0,1-.669-.281.965.965,0,0,1-.277-.678Z" transform="translate(0 -160.19)" fill="#fff"/>
    <path d="M6.578,31.994a3.23,3.23,0,0,1,.439-.056L5.531,26.483h-2.8l1.846,6.775A3.431,3.431,0,0,1,6.578,31.994Z" transform="translate(-2.432 -23.608)" fill="#fff"/>
    <path d="M219.181,127.817a2.9,2.9,0,0,1,1.212.716l1.091,1.076a1.024,1.024,0,0,0,1.433,0l1.091-1.076a2.947,2.947,0,0,1,4.121,0l1.091,1.076a1.024,1.024,0,0,0,1.433,0l1.091-1.076c.01-.01.022-.019.032-.029v-2.32a7.657,7.657,0,0,0-12.6,1.633Z" transform="translate(-195.751 -110.328)" fill="#fff"/>
    <path d="M355.027,18.363l1.091,1.076a1.025,1.025,0,0,0,1.433,0l1.091-1.076a2.947,2.947,0,0,1,4.121,0L364,19.582a1.023,1.023,0,0,0,1.35.073,2.975,2.975,0,0,1,.91-.491V6.708a6.7,6.7,0,1,0-13.406,0v10.82a2.926,2.926,0,0,1,2.173.835Zm.581-4.94a4.867,4.867,0,0,0,1.6-.573,2.569,2.569,0,0,0,1.387-2.362c0-3.383,3.071-4.576,4.7-4.734a.958.958,0,0,1,.189,1.907,4.726,4.726,0,0,0-1.6.526,2.459,2.459,0,0,0-1.37,2.3c0,3.364-3.054,4.636-4.669,4.837a.958.958,0,1,1-.237-1.9Z" transform="translate(-315.175)" fill="#fff"/>
    <path d="M55.341,9.091a7.091,7.091,0,0,1,.989-1.41L58.423,0h-2.8L54.053,5.75l.841,3.087C55.053,8.918,55.2,9,55.341,9.091Z" transform="translate(-48.186)" fill="#fff"/>
    <path d="M18.649,75.016a13.075,13.075,0,0,0-.832,7.17,2.987,2.987,0,0,1,.712.417,1.023,1.023,0,0,0,1.35-.073l1.237-1.22a2.9,2.9,0,0,1,.666-.49,9.53,9.53,0,0,1,.726-3.928.958.958,0,0,1,1.716.85,7.674,7.674,0,0,0-.52,2.775,2.911,2.911,0,0,1,1.533.792l1.091,1.076a1.025,1.025,0,0,0,1.433,0l1.091-1.076a2.947,2.947,0,0,1,3.836-.243,8.1,8.1,0,0,0-.491-3.33.958.958,0,1,1,1.722-.839,10.742,10.742,0,0,1,.566,5.737,1.024,1.024,0,0,0,1.011-.249l1.091-1.076a2.9,2.9,0,0,1,.749-.532,9.541,9.541,0,0,1,1.224-2.328,14.679,14.679,0,0,0-.906-3.434c-.436-1.075-.965-1.681-1.574-1.8a3.231,3.231,0,0,0-2.357,1.03.957.957,0,0,1-1.607-.422c-.036-.127-.933-3.208-3.96-3.208-3.068,0-3.963,3.176-3.971,3.208a.957.957,0,0,1-1.607.422,3.211,3.211,0,0,0-2.361-1.029C19.612,73.338,19.084,73.944,18.649,75.016Z" transform="translate(-15.704 -62.948)" fill="#fff"/>
    <path d="M145.913,24.831a4.187,4.187,0,0,1,3.008-.705c1.281.254,2.282,1.251,2.976,2.96a16.161,16.161,0,0,1,.751,2.406,9.569,9.569,0,0,1,11.91-.339V22.447a8.639,8.639,0,0,1,.145-1.567,6.7,6.7,0,0,0-7.727-.159.957.957,0,0,1-1.317-.238,6.7,6.7,0,0,0-11.882,1.942A6.664,6.664,0,0,1,145.913,24.831Z" transform="translate(-128.469 -15.739)" fill="#fff"/>
</svg>