<svg xmlns="http://www.w3.org/2000/svg" width="19.966" height="22.422">
    <symbol class="bi bi-vkuster-paperclip" id="vkuster-clip" fill="currentColor" viewBox="0 0 19.966 22.422">
        <g transform="translate(-28.042 0)">
            <g transform="translate(28.042 0)">
                <path d="M46.374,1.633a5.592,5.592,0,0,0-7.9,0L30.158,9.95a.657.657,0,0,0,.929.929L39.4,2.562a4.375,4.375,0,0,1,6.041,0,4.276,4.276,0,0,1,0,6.04L33.832,20.346a2.691,2.691,0,0,1-3.717,0,2.631,2.631,0,0,1,0-3.717L41.263,5.35a1.009,1.009,0,0,1,1.394,0,.987.987,0,0,1,0,1.394L31.973,17.559a.732.732,0,0,0,0,.929.657.657,0,0,0,.929,0L43.586,7.673a2.3,2.3,0,0,0,0-3.253,2.356,2.356,0,0,0-3.252,0L29.185,15.7a3.968,3.968,0,0,0,0,5.575,3.963,3.963,0,0,0,5.575,0L46.374,9.531A5.591,5.591,0,0,0,46.374,1.633Z" transform="translate(-28.042 0)" />
            </g>
        </g>
    </symbol>
</svg>