<svg xmlns="http://www.w3.org/2000/svg" width="21.962" height="22.002" viewBox="0 0 21.962 22.002">
  <path id="Icon_feather-phone" d="M23.128,17.974v3.011a2.007,2.007,0,0,1-2.188,2.007,19.861,19.861,0,0,1-8.661-3.081,19.57,19.57,0,0,1-6.022-6.022,19.861,19.861,0,0,1-3.081-8.7A2.007,2.007,0,0,1,5.173,3H8.184a2.007,2.007,0,0,1,2.007,1.726,12.886,12.886,0,0,0,.7,2.82,2.007,2.007,0,0,1-.452,2.118L9.167,10.938a16.058,16.058,0,0,0,6.022,6.022l1.275-1.275a2.007,2.007,0,0,1,2.118-.452,12.886,12.886,0,0,0,2.82.7,2.007,2.007,0,0,1,1.726,2.037Z" transform="translate(-2.167 -2)" fill="none" stroke="#ef4925" stroke-linecap="round" stroke-linejoin="round" stroke-width="2"/>
</svg>