<svg xmlns="http://www.w3.org/2000/svg" width="16.305" height="14.494">
    <symbol class="bi bi-vkuster-piggy" id="vkuster-piggy" fill="currentColor" viewBox="0 0 16.305 14.494">
        <path d="M15.854,6.341h-.835A4.543,4.543,0,0,0,13.96,4.855L14.5,2.718h-.906a2.7,2.7,0,0,0-2.067.971,4.49,4.49,0,0,0-.651-.065H7.248A4.534,4.534,0,0,0,2.809,7.247H1.586a.68.68,0,0,1-.665-.815.7.7,0,0,1,.694-.544h.028a.17.17,0,0,0,.17-.17V5.152a.17.17,0,0,0-.17-.17A1.622,1.622,0,0,0,.015,6.358,1.586,1.586,0,0,0,1.586,8.153H2.719a4.511,4.511,0,0,0,1.812,3.6v2.285a.454.454,0,0,0,.453.453H6.8a.454.454,0,0,0,.453-.453V12.682h3.624v1.359a.454.454,0,0,0,.453.453h1.812a.454.454,0,0,0,.453-.453V11.757a4.53,4.53,0,0,0,.886-.886h1.379a.454.454,0,0,0,.453-.453V6.794A.454.454,0,0,0,15.854,6.341ZM12.23,8.153a.453.453,0,1,1,.453-.453A.454.454,0,0,1,12.23,8.153ZM7.248,2.718h3.624c.153,0,.3.011.45.023,0-.008,0-.014,0-.023a2.718,2.718,0,0,0-5.435,0c0,.059.014.116.017.176A5.381,5.381,0,0,1,7.248,2.718Z" transform="translate(-0.002)"/>
    </symbol>
</svg>