<svg xmlns="http://www.w3.org/2000/svg" width="55" height="55" viewBox="0 0 55 55">
  <g transform="translate(-0.684)">
    <path d="M89.618,3.5V1.626a1.606,1.606,0,1,0-3.212,0V3.435C75.722,4.18,69.668,12.226,67.785,19.62h40.523A20.938,20.938,0,0,0,89.618,3.5Z" transform="translate(-59.827)" fill="#fff"/>
    <path d="M54.073,211H2.3a1.632,1.632,0,0,0-1.611,1.648,7.919,7.919,0,0,0,.076,1.077A4.582,4.582,0,0,0,5.373,217.5H50.986a4.59,4.59,0,0,0,4.62-3.774,7.908,7.908,0,0,0,.077-1.08A1.633,1.633,0,0,0,54.073,211Z" transform="translate(0 -188.361)" fill="#fff"/>
    <path d="M76.241,301h-5a6.393,6.393,0,0,0-4.547,1.9l-5.213,5.272a3.2,3.2,0,0,1-2.274.953H50.473a.573.573,0,0,1-.552-.426.581.581,0,0,1,.26-.651s5.843-3.5,8.581-5.146A2.4,2.4,0,0,0,58.827,301h-11.1a6.266,6.266,0,0,0-2.987.744c-1.039.562-2.145,1.185-3.352,1.9-2.648,1.564-3.561,3.773-4.616,6.331a32.773,32.773,0,0,1-3.071,6.048c-.97,1.466.482,2.672,2.322,4.2,3.173,2.638,4.477,3.651,5.331,3.651a1.394,1.394,0,0,0,1.072-.521,9.74,9.74,0,0,1,6.979-2.839h6.284a11.216,11.216,0,0,0,8.361-3.763l12.833-14.284a.883.883,0,0,0,.151-.943A.865.865,0,0,0,76.241,301Z" transform="translate(-29.161 -268.871)" fill="#fff"/>
  </g>
</svg>