<?xml version="1.0" encoding="UTF-8" ?>
<svg xmlns:xlink="http://www.w3.org/1999/xlink" xmlns="http://www.w3.org/2000/svg">
    <symbol class="bi bi-vkuster-shops" id="vkuster-shops" fill="currentColor" viewBox="0 0 19 19">
        <path d="M19,7.917a.782.782,0,0,0-.019-.172L17.952,3.1A3.933,3.933,0,0,0,14.085,0H4.915A3.933,3.933,0,0,0,1.051,3.1L.019,7.745A.782.782,0,0,0,0,7.917v.792A3.154,3.154,0,0,0,.792,10.8v4.241A3.963,3.963,0,0,0,4.75,19h9.5a3.963,3.963,0,0,0,3.958-3.958V10.8A3.154,3.154,0,0,0,19,8.708ZM1.583,8,2.6,3.443a2.361,2.361,0,0,1,2.318-1.86h.627V3.958a.792.792,0,1,0,1.583,0V1.583h4.75V3.958a.792.792,0,1,0,1.583,0V1.583h.627A2.361,2.361,0,0,1,16.4,3.443L17.417,8v.705a1.583,1.583,0,0,1-1.583,1.583h-.792a1.583,1.583,0,0,1-1.583-1.583.792.792,0,1,0-1.583,0,1.583,1.583,0,0,1-1.583,1.583H8.708A1.583,1.583,0,0,1,7.125,8.708a.792.792,0,1,0-1.583,0,1.583,1.583,0,0,1-1.583,1.583H3.167A1.583,1.583,0,0,1,1.583,8.708ZM14.25,17.417H4.75a2.375,2.375,0,0,1-2.375-2.375V11.774a3.149,3.149,0,0,0,.792.1h.792A3.159,3.159,0,0,0,6.333,10.8a3.159,3.159,0,0,0,2.375,1.074h1.583A3.159,3.159,0,0,0,12.667,10.8a3.159,3.159,0,0,0,2.375,1.074h.792a3.149,3.149,0,0,0,.792-.1v3.267A2.375,2.375,0,0,1,14.25,17.417Z" transform="translate(0 0)"/>
    </symbol>
</svg>