<svg xmlns="http://www.w3.org/2000/svg" width="34" height="34" viewBox="0 0 34 34">
  <g transform="translate(-2 -2)">
    <g transform="translate(2 2)">
      <path d="M33.677,18.386a.344.344,0,0,1,.152.27v.022l-.136,8.78a6.5,6.5,0,0,1-6.13,6.533L27.231,34H6.752A6.5,6.5,0,0,1,.3,27.8l-.008-.337L.17,18.679a.36.36,0,0,1,.153-.293.311.311,0,0,1,.323.034A29.027,29.027,0,0,0,12.552,22.9a1.281,1.281,0,0,0,1.395-.93,3.083,3.083,0,0,1,2.759-2.33l.268-.011h.051a3.087,3.087,0,0,1,3.028,2.341,1.281,1.281,0,0,0,1.395.93A29.027,29.027,0,0,0,33.354,18.42l.068-.034A.268.268,0,0,1,33.677,18.386Zm-16.685,3.7A1.292,1.292,0,0,0,15.728,23.2l-.012.174V25.6a1.282,1.282,0,0,0,1.276,1.291,1.267,1.267,0,0,0,1.264-1.114l.011-.177V23.378A1.282,1.282,0,0,0,16.991,22.087ZM19.186,0a5.05,5.05,0,0,1,4.966,4.441H27.52A6.529,6.529,0,0,1,34,11s-.1,1.53-.136,3.662a.56.56,0,0,1-.219.434c-.818.6-1.566,1.1-1.635,1.138a25.927,25.927,0,0,1-9.6,3.889.541.541,0,0,1-.568-.277,5.6,5.6,0,0,0-4.851-2.8,5.7,5.7,0,0,0-4.883,2.792.542.542,0,0,1-.565.272A26.333,26.333,0,0,1,1.99,16.251h0L.357,15.115A.486.486,0,0,1,.136,14.7C.085,13.824,0,11,0,11A6.529,6.529,0,0,1,6.48,4.441H9.831A5.05,5.05,0,0,1,14.8,0h4.388Zm0,2.582H14.8a2.47,2.47,0,0,0-2.381,1.859h9.151a2.47,2.47,0,0,0-2.381-1.859Z" transform="translate(0 0)" fill="#e03977"/>
    </g>
  </g>
</svg>