<svg xmlns="http://www.w3.org/2000/svg" width="28.451" height="30.004">
    <symbol class="bi bi-viber" id="bi-viber" fill="currentColor" viewBox="0 0 28.451 30.004">
        <path d="M26.016,2.924C25.271,2.238,22.26.053,15.545.023c0,0-7.916-.475-11.771,3.064C1.629,5.232.873,8.379.791,12.275s-.182,11.2,6.855,13.178h.006l-.006,3.023S7.6,29.7,8.408,29.947c.973.3,1.547-.627,2.479-1.629.51-.551,1.213-1.359,1.746-1.975a27.227,27.227,0,0,0,8.936-.656c.973-.316,6.475-1.02,7.365-8.32C29.859,9.832,28.488,5.074,26.016,2.924Zm.814,13.893c-.756,6.094-5.215,6.48-6.035,6.744a25.191,25.191,0,0,1-7.687.656s-3.047,3.674-4,4.629c-.311.311-.65.281-.645-.334,0-.4.023-5.021.023-5.021h0c-5.965-1.652-5.613-7.869-5.549-11.121s.68-5.918,2.5-7.711C8.7,1.7,15.422,2.139,15.422,2.139c5.678.023,8.4,1.734,9.029,2.309C26.543,6.24,27.609,10.529,26.83,16.816Zm-8.145-4.734a.378.378,0,1,1-.756.035,1.812,1.812,0,0,0-1.91-1.986.378.378,0,0,1,.041-.756A2.548,2.548,0,0,1,18.686,12.082Zm1.189.662c.059-2.484-1.494-4.43-4.441-4.646a.379.379,0,0,1,.053-.756,5.132,5.132,0,0,1,5.145,5.42A.378.378,0,0,1,19.875,12.744Zm2.754.785a.378.378,0,0,1-.756.006c-.035-4.775-3.217-7.377-7.078-7.406a.378.378,0,0,1,0-.756C19.113,5.4,22.588,8.385,22.629,13.529Zm-.662,5.748v.012c-.633,1.113-1.816,2.344-3.035,1.951l-.012-.018a22.523,22.523,0,0,1-5.988-3.311,15.318,15.318,0,0,1-2.484-2.484,19.014,19.014,0,0,1-1.8-2.73A17.508,17.508,0,0,1,7.119,9.434c-.393-1.219.832-2.4,1.951-3.035h.012a1.067,1.067,0,0,1,1.4.229s.727.867,1.037,1.295c.293.4.686,1.037.891,1.395a1.223,1.223,0,0,1-.217,1.559l-.7.563a1.031,1.031,0,0,0-.311.82A7.337,7.337,0,0,0,16.119,17.2a1.031,1.031,0,0,0,.82-.311l.563-.7a1.223,1.223,0,0,1,1.559-.217,15.182,15.182,0,0,1,2.684,1.928A1.047,1.047,0,0,1,21.967,19.277Z" transform="translate(-0.773 -0.002)"/>
    </symbol>
</svg>