<?xml version="1.0" encoding="UTF-8" ?>
<svg xmlns="http://www.w3.org/2000/svg">
    <symbol class="bi bi-vkuster-visa" id="vkuster-visa" fill="currentColor" viewBox="0 0 55.697 17.071">
        <path d="M40.485,11.1a11.583,11.583,0,0,0-4.038-.7c-4.456,0-7.6,2.246-7.624,5.465-.028,2.367,2.237,3.7,3.948,4.493,1.757.812,2.344,1.323,2.339,2.054-.012,1.107-1.4,1.608-2.7,1.608a9.54,9.54,0,0,1-4.249-.87l-.555-.258L26.981,26.6a15.081,15.081,0,0,0,5.048.87c4.737,0,7.832-2.23,7.87-5.66.037-1.887-1.184-3.319-3.762-4.5C34.572,16.55,33.6,16.037,33.6,15.26c0-.687.833-1.42,2.574-1.42a8.262,8.262,0,0,1,3.377.634l.418.188.629-3.583-.109.023Zm11.564-.395H48.568A2.252,2.252,0,0,0,46.2,12.078L39.5,27.242H44.24l.947-2.483,5.779,0c.142.58.557,2.479.557,2.479H55.7L52.049,10.707Zm-29.631-.139h4.509l-2.82,16.544H19.6l2.822-16.549ZM10.956,19.685l.469,2.3,4.412-11.276h4.778l-7.1,16.512H8.744l-3.9-13.985a.923.923,0,0,0-.418-.55A19.056,19.056,0,0,0,0,11.043l.058-.348H7.324a1.888,1.888,0,0,1,2.049,1.4l1.583,7.6Zm35.526,1.687,1.8-4.628c-.023.046.371-.956.6-1.578l.309,1.427,1.042,4.774H46.482v0Z" transform="translate(0 -10.402)"/>
    </symbol>
</svg>