<svg xmlns="http://www.w3.org/2000/svg" width="87.822" height="28.389" viewBox="0 0 87.822 28.389">
  <path d="M17.365,21.864c-.344-1.76-1.672-2.316-3.216-2.316H2.655l-.084.556c7.889,2.016,14.366,6.3,17.283,14.41l-2.488-12.65Zm3.216,16.467-.728-3.817a17.216,17.216,0,0,0-9.265-9.35l5.789,21.871h7.505L35.076,19.547H27.527L20.581,38.331Zm20.027,8.746,4.457-27.529H37.948L33.488,47.077Zm19.424-28c-7.033,0-11.962,3.732-12.006,9.09-.044,3.948,3.516,6.133,6.217,7.464,2.788,1.329,3.689,2.229,3.689,3.429,0,1.844-2.229,2.66-4.244,2.66A13.492,13.492,0,0,1,47,40.3l-.944-.472L45.066,46A20.74,20.74,0,0,0,53,47.464c7.461.044,12.309-3.689,12.394-9.39,0-3.132-1.929-5.489-6-7.464C56.9,29.37,55.4,28.466,55.4,27.182c0-1.157,1.285-2.36,4.073-2.36a11.828,11.828,0,0,1,5.317,1.032l.644.341.985-5.961a17.69,17.69,0,0,0-6.389-1.158Zm19.127.472a3.521,3.521,0,0,0-3.732,2.316L64.877,47.077h7.461c1.2-3.386,1.5-4.117,1.5-4.117h9.09s.216.944.856,4.117h6.605L84.648,19.548H79.159ZM75.855,37.3s.6-1.588,2.832-7.677c-.044.044.6-1.588.944-2.616l.513,2.36c1.329,6.561,1.632,7.933,1.632,7.933H75.855Z" transform="translate(-2.571 -19.076)" fill="#233f8a"/>
</svg>
