<svg xmlns="http://www.w3.org/2000/svg">
    <symbol class="bi bi-vkuster-vk" id="vkuster-vk" fill="currentColor" viewBox="0 0 26.227 15.016">
        <path d="M25.02,17.525c-.5-.469-.92-.75-1.084-1.2a.853.853,0,0,1-.059-.445c.023-.352.322-.809,2.32-3.451C27.029,11.326,28.113,10,28.113,9c0-.645-.264-.8-1.219-.8H22.559c-.381,0-.639.521-.8.961a24.01,24.01,0,0,1-1.254,2.566,9.235,9.235,0,0,1-2.344,3.07.538.538,0,0,1-.322.047.554.554,0,0,1-.363-.217c-.135-.164-.346-.451-.264-3.158.047-1.512.217-2.566-.1-3.211a1.111,1.111,0,0,0-.281-.322,6.407,6.407,0,0,0-2.812-.439,9.224,9.224,0,0,0-2.344.246,2.32,2.32,0,0,0-1.107.7c-.146.193.252.094.639.27a1.2,1.2,0,0,1,.656.545,6.8,6.8,0,0,1,.311,3.908,4.338,4.338,0,0,1-.387,1.494.528.528,0,0,1-.557.182c-.943-.287-1.676-1.523-2.414-2.971C8.051,10.359,7.658,9.3,7.447,8.865A1.086,1.086,0,0,0,6.369,8.2H2.479a.577.577,0,0,0-.58.527c0,.645,1.09,2.52,1.746,3.867a29.223,29.223,0,0,0,4.828,7.043A9.014,9.014,0,0,0,14.607,22.5a14.009,14.009,0,0,0,1.951-.088.857.857,0,0,0,.334-.146c.416-.322.34-.937.369-1.418a2.672,2.672,0,0,1,.41-1.523.815.815,0,0,1,1.09-.24,3.633,3.633,0,0,1,1.008.885A14.689,14.689,0,0,0,21.6,21.855a3.415,3.415,0,0,0,1.049.51,4.214,4.214,0,0,0,1.482.135c.568-.023,1-.018,1.7-.018a4.6,4.6,0,0,0,1.939-.205.774.774,0,0,0,.352-.662C28.125,20.918,27.41,19.758,25.02,17.525Z" transform="translate(-1.898 -7.494)" />
    </symbol>
</svg>