<svg xmlns="http://www.w3.org/2000/svg">
    <symbol class="bi bi-vkuster-tube" id="vkuster-tube" fill="currentColor" viewBox="0 0 25.372 19.033">
        <path d="M25.207,7.953a3.853,3.853,0,0,0-3.668-4.024c-2.746-.129-5.546-.178-8.406-.178h-.892c-2.855,0-5.66.05-8.406.178A3.861,3.861,0,0,0,.173,7.963C.05,9.727-.005,11.491,0,13.256s.05,3.529.169,5.3a3.866,3.866,0,0,0,3.663,4.039c2.884.134,5.843.193,8.852.188s5.962-.05,8.852-.188A3.866,3.866,0,0,0,25.2,18.554c.119-1.769.173-3.534.169-5.3S25.326,9.722,25.207,7.953ZM10.259,18.118V8.379l7.186,4.867Z" transform="translate(0 -3.75)"/>
    </symbol>
</svg>